<svg width="68" height="68" viewBox="0 0 68 68" fill="none" xmlns="http://www.w3.org/2000/svg">
<rect width="68" height="68" rx="10" fill="#E31D53"/>
<path fill-rule="evenodd" clip-rule="evenodd" d="M17.1524 17.2666L23.4949 15.1673C24.3636 14.8794 25.2222 14.9636 26.0185 15.4156C26.8147 15.8668 27.3274 16.5604 27.5269 17.4543L31.9511 37.3195C32.2979 38.8767 31.4309 40.4289 29.9233 40.9508L27.3383 41.8464C25.7946 42.3809 24.1094 41.6444 23.4537 40.1486L15.2727 21.4871C14.9066 20.6521 14.9091 19.7944 15.2803 18.9619C15.6507 18.1286 16.287 17.5528 17.1524 17.2666V17.2666Z" fill="white"/>
<path d="M31.2843 55.2515C34.193 55.2306 36.5339 52.8557 36.513 49.9471C36.4921 47.0385 34.1172 44.6975 31.2086 44.7185C28.2999 44.7394 25.959 47.1143 25.9799 50.0229C26.0008 52.9315 28.3757 55.2725 31.2843 55.2515Z" fill="white"/>
<path fill-rule="evenodd" clip-rule="evenodd" d="M42.1329 41.3148C42.0487 41.3627 41.2852 41.686 40.4797 42.0041C39.063 42.5647 38.4174 44.2162 38.9772 45.6329L40.1135 48.5108C40.4081 49.2566 40.9317 49.7928 41.6699 50.1059C42.409 50.4199 43.0924 50.3189 43.845 50.0411C50.084 47.7364 54.1025 42.2592 53.5326 35.4604C52.9468 28.4697 47.7599 23.3351 41.4595 22.3107C39.1969 21.9428 37.3459 22.0935 35.2137 22.4866C34.7432 22.5733 33.9957 22.7896 33.7339 23.1903C33.473 23.5901 33.4014 24.0354 33.5252 24.4967L35.0092 30.0455C35.2154 30.8165 35.994 31.3199 36.7684 31.128C37.9662 30.83 39.0277 30.8207 39.8038 30.878C42.7305 31.0934 44.6236 33.5244 44.8399 35.9882C45.0571 38.452 44.212 40.0277 42.1329 41.3148V41.3148Z" fill="white"/>
</svg>
