<svg width="140" height="25" viewBox="0 0 140 25" fill="none" xmlns="http://www.w3.org/2000/svg">
<path d="M5.08526 6.6086C6.95985 6.18659 8.63566 5.97559 10.1127 5.97559C12.6203 5.97559 14.5071 6.46793 15.7731 7.45262C17.0392 8.43731 17.6722 10.055 17.6722 12.3027V24.2566H12.4337V13.3577C12.4337 11.318 11.2839 10.2997 8.98733 10.2997C8.47052 10.2997 7.94454 10.3578 7.40632 10.474C6.8681 10.5932 6.44609 10.7339 6.14029 10.896V24.2566H0.901855V7.97861C1.81621 7.48626 3.21068 7.03061 5.08526 6.6086Z" fill="#623C21"/>
<path d="M23.9438 22.9568C22.4545 21.7397 21.7114 19.9109 21.7114 17.4737V15.0578C21.7114 12.9355 23.43 11.2169 25.5523 11.2169H26.9499V17.0517C26.9499 18.177 27.2006 19.0149 27.7052 19.5654C28.2098 20.1158 29.011 20.3911 30.1149 20.3911C31.2158 20.3911 32.0201 20.1158 32.5247 19.5654C33.0293 19.0149 33.28 18.177 33.28 17.0517V6.46777H38.2004V17.4737C38.2004 19.9354 37.4909 21.7702 36.0751 22.9751C34.6561 24.183 32.6592 24.7855 30.0813 24.7855C27.4758 24.7855 25.43 24.1769 23.9438 22.9568Z" fill="#623C21"/>
<path d="M55.4883 7.16506C55.4883 8.82558 54.1397 10.1742 52.4791 10.1742H49.6872C48.834 10.1742 48.2009 10.3057 47.7881 10.5717C47.3722 10.8378 47.1673 11.2109 47.1673 11.694C47.1673 12.2689 47.3967 12.691 47.8584 12.9539C48.3202 13.22 49.0541 13.4891 50.0694 13.7674C51.2192 14.0671 52.1305 14.3606 52.7972 14.6481C53.4638 14.9356 54.0632 15.431 54.5923 16.1343C55.1213 16.8377 55.3874 17.8224 55.3874 19.0884C55.3415 21.07 54.5923 22.5134 53.1427 23.4216C51.6932 24.3299 49.8492 24.7855 47.6169 24.7855C46.5129 24.7855 45.5435 24.6754 44.7148 24.4583C43.886 24.2381 42.9656 23.9232 41.9503 23.5073V18.9814C43.8157 20.3881 45.7729 21.0883 47.8217 21.0883C48.6046 21.0883 49.1734 20.9569 49.5312 20.6908C49.889 20.4278 50.0663 20.0639 50.0663 19.6021C50.0663 19.0731 49.7789 18.6817 49.204 18.4278C48.6291 18.174 47.7055 17.8988 46.4395 17.5991C45.1031 17.3239 44.0053 16.7704 43.1399 15.9417C42.2775 15.1129 41.8433 13.905 41.8433 12.3148C41.8433 10.957 42.1888 9.84085 42.8799 8.96625C43.5711 8.09165 44.4395 7.45252 45.4885 7.04886C46.5374 6.64519 47.623 6.44336 48.7514 6.44336H55.4822V7.16506H55.4883Z" fill="#623C21"/>
<path d="M96.7228 24.2565H90.0776L84.5242 16.908L84.4875 24.2565H79.2827V9.03964C79.2827 6.95099 80.9769 5.25684 83.0655 5.25684H84.5548L84.5181 13.0396L89.8972 6.46476H96.261L88.9125 14.1986L96.7228 24.2565Z" fill="#623C21"/>
<path d="M100.062 24.2565V6.44336H105.3L105.337 24.2565H100.062Z" fill="#623C21"/>
<path d="M116.655 10.4738V18.7C116.655 19.3085 116.783 19.7611 117.04 20.0547C117.297 20.3482 117.731 20.495 118.34 20.495C118.716 20.495 119.101 20.4308 119.499 20.3024C119.896 20.1739 120.75 19.8834 121.055 19.651C121.055 19.651 121.239 21.917 122.499 23.4858C121.468 24.1525 118.572 24.9628 117.285 24.9628C115.245 24.9628 113.716 24.4827 112.698 23.5225C111.679 22.5623 111.169 21.18 111.169 19.3727V10.4769H108.566V6.46777H111.169V0H116.652V6.46777" fill="#623C21"/>
<path d="M124.982 6.44336H132.3C137.419 6.44336 140 9.3271 140 12.4799L139.964 20.5654C139.939 22.0425 139.202 23.1128 137.749 23.7825C136.297 24.4522 134.175 24.7855 131.386 24.7855C126.181 24.7855 123.582 22.758 123.582 18.7031C123.582 16.9936 124.114 15.6573 125.181 14.694C126.248 13.7337 127.844 13.4371 129.945 13.2536C131.398 13.1252 134.795 13.324 134.795 13.324C134.795 11.2842 133.484 10.2659 130.857 10.2659H128.138C126.392 10.2659 124.976 8.84699 124.979 7.10084L124.982 6.44336ZM134.092 20.8468C134.56 20.6847 134.795 20.3544 134.795 19.8621V16.7582C132.896 16.5808 130.566 16.5594 129.575 17.2077C129.049 17.5502 128.783 18.0823 128.783 18.807C128.783 19.4859 129.059 20.0364 129.609 20.4584C130.159 20.8804 130.811 21.0914 131.56 21.0914C132.78 21.0945 133.624 21.0119 134.092 20.8468Z" fill="#623C21"/>
<path d="M60.2399 6.44336H67.5579C72.677 6.44336 75.258 9.3271 75.258 12.4799L75.2213 20.5654C75.1969 22.0425 74.4599 23.1128 73.0073 23.7825C71.5547 24.4522 69.4324 24.7855 66.6435 24.7855C61.4387 24.7855 58.8394 22.758 58.8394 18.7031C58.8394 16.9936 59.3715 15.6573 60.4387 14.694C61.506 13.7337 63.1023 13.4371 65.2032 13.2536C66.6557 13.1252 70.0532 13.324 70.0532 13.324C70.0532 11.2842 68.7413 10.2659 66.1145 10.2659H63.3958C61.6497 10.2659 60.2338 8.84699 60.2369 7.10084L60.2399 6.44336ZM69.3499 20.8468C69.8177 20.6847 70.0532 20.3544 70.0532 19.8621V16.7582C68.1542 16.5808 65.8239 16.5594 64.8331 17.2077C64.3071 17.5502 64.0411 18.0823 64.0411 18.807C64.0411 19.4859 64.3163 20.0364 64.8668 20.4584C65.4172 20.8804 66.0686 21.0914 66.8178 21.0914C68.0349 21.0945 68.8789 21.0119 69.3499 20.8468Z" fill="#623C21"/>
<path d="M25.3602 11.214H26.9504V9.62384C26.9504 7.60859 25.3174 5.97559 23.3021 5.97559H21.7119V7.56577C21.7119 9.58102 23.3449 11.214 25.3602 11.214Z" fill="#007934"/>
<path d="M82.931 5.25984H84.5426V3.64825C84.5426 1.63299 82.9096 0 80.8943 0H79.2827V1.61159C79.2827 3.62379 80.9157 5.25984 82.931 5.25984Z" fill="#007934"/>
<path d="M116.655 9.45859V10.4708H118.957C120.621 10.4708 121.973 9.12221 121.973 7.45558V6.44336H119.67C118.003 6.44336 116.655 7.79502 116.655 9.45859Z" fill="#5E3910"/>
<path d="M99.9551 1.85012V0H102.429C104.053 0 105.371 1.31802 105.371 2.94184V4.79196H102.897C101.273 4.7889 99.9551 3.47394 99.9551 1.85012Z" fill="#007934"/>
</svg>
