<svg width="133" height="43" viewBox="0 0 133 43" fill="none" xmlns="http://www.w3.org/2000/svg">
<path d="M5.09949 6.67287C6.86362 6.27572 8.44068 6.07715 9.83068 6.07715C12.1905 6.07715 13.9661 6.54048 15.1576 7.46715C16.349 8.39382 16.9447 9.9162 16.9447 12.0314V23.2809H12.015V13.0243C12.015 11.1048 10.9329 10.1464 8.77163 10.1464C8.28527 10.1464 7.79028 10.2011 7.28378 10.3105C6.77728 10.4227 6.38014 10.5551 6.09235 10.7076V23.2809H1.1626V7.96214C2.02307 7.49881 3.33537 7.07001 5.09949 6.67287Z" fill="white"/>
<path d="M22.8472 22.0579C21.4457 20.9125 20.7463 19.1916 20.7463 16.8979V14.6244C20.7463 12.6272 22.3637 11.0098 24.3609 11.0098H25.6761V16.5008C25.6761 17.5598 25.9121 18.3483 26.3869 18.8664C26.8618 19.3844 27.6158 19.6434 28.6547 19.6434C29.6907 19.6434 30.4476 19.3844 30.9224 18.8664C31.3973 18.3483 31.6332 17.5598 31.6332 16.5008V6.54053H36.2637V16.8979C36.2637 19.2146 35.596 20.9413 34.2636 22.0752C32.9283 23.2119 31.049 23.7788 28.623 23.7788C26.1711 23.7788 24.2458 23.2061 22.8472 22.0579Z" fill="white"/>
<path d="M52.5322 7.19626C52.5322 8.75893 51.2631 10.0281 49.7004 10.0281H47.073C46.27 10.0281 45.6743 10.1518 45.2858 10.4022C44.8944 10.6526 44.7016 11.0037 44.7016 11.4584C44.7016 11.9994 44.9175 12.3965 45.352 12.644C45.7866 12.8944 46.4773 13.1477 47.4327 13.4095C48.5148 13.6916 49.3724 13.9678 49.9997 14.2384C50.6271 14.5089 51.1912 14.9751 51.689 15.637C52.1869 16.2989 52.4373 17.2256 52.4373 18.417C52.3941 20.2818 51.689 21.6402 50.3249 22.4949C48.9608 23.3496 47.2255 23.7784 45.1247 23.7784C44.0858 23.7784 43.1735 23.6748 42.3936 23.4705C41.6137 23.2633 40.7475 22.9669 39.792 22.5755V18.3163C41.5475 19.6401 43.3893 20.2991 45.3175 20.2991C46.0542 20.2991 46.5895 20.1754 46.9262 19.925C47.2629 19.6775 47.4298 19.335 47.4298 18.9005C47.4298 18.4026 47.1593 18.0342 46.6183 17.7954C46.0772 17.5565 45.2081 17.2975 44.0167 17.0155C42.7591 16.7565 41.7259 16.2356 40.9115 15.4557C40.0999 14.6758 39.6913 13.539 39.6913 12.0426C39.6913 10.7648 40.0165 9.71438 40.6669 8.89132C41.3173 8.06825 42.1346 7.46678 43.1217 7.08691C44.1088 6.70703 45.1304 6.51709 46.1923 6.51709H52.5265V7.19626H52.5322Z" fill="white"/>
<path d="M91.3372 23.2805H85.0836L79.8574 16.365L79.8229 23.2805H74.9248V8.96029C74.9248 6.99472 76.5191 5.40039 78.4847 5.40039H79.8862L79.8517 12.7245L84.9138 6.53714H90.9026L83.9871 13.8152L91.3372 23.2805Z" fill="white"/>
<path d="M94.4796 23.2806V6.51709H99.4094L99.4439 23.2806H94.4796Z" fill="white"/>
<path d="M110.095 10.3102V18.0517C110.095 18.6243 110.216 19.0503 110.458 19.3265C110.699 19.6028 111.108 19.741 111.681 19.741C112.035 19.741 112.397 19.6805 112.771 19.5597C113.145 19.4388 113.948 19.1654 114.236 18.9467C114.236 18.9467 114.409 21.0792 115.595 22.5555C114.625 23.1829 111.899 23.9455 110.688 23.9455C108.768 23.9455 107.329 23.4937 106.371 22.59C105.413 21.6864 104.932 20.3856 104.932 18.6848V10.3131H102.483V6.54026H104.932V0.453613H110.092V6.54026" fill="white"/>
<path d="M117.931 6.51709H124.818C129.635 6.51709 132.064 9.2309 132.064 12.198L132.03 19.807C132.007 21.197 131.313 22.2042 129.946 22.8345C128.579 23.4647 126.582 23.7784 123.957 23.7784C119.059 23.7784 116.613 21.8704 116.613 18.0544C116.613 16.4457 117.114 15.1881 118.118 14.2815C119.123 13.3779 120.625 13.0987 122.602 12.9261C123.969 12.8052 127.166 12.9922 127.166 12.9922C127.166 11.0727 125.932 10.1144 123.46 10.1144H120.901C119.258 10.1144 117.925 8.77908 117.928 7.13583L117.931 6.51709ZM126.504 20.0718C126.945 19.9192 127.166 19.6084 127.166 19.1451V16.2241C125.379 16.0572 123.186 16.037 122.254 16.6471C121.759 16.9694 121.508 17.4702 121.508 18.1522C121.508 18.7911 121.767 19.3091 122.285 19.7063C122.803 20.1034 123.416 20.302 124.121 20.302C125.27 20.3049 126.064 20.2272 126.504 20.0718Z" fill="white"/>
<path d="M57.0043 6.51709H63.891C68.7085 6.51709 71.1375 9.2309 71.1375 12.198L71.1029 19.807C71.0799 21.197 70.3863 22.2042 69.0194 22.8345C67.6524 23.4647 65.6551 23.7784 63.0305 23.7784C58.1324 23.7784 55.6863 21.8704 55.6863 18.0544C55.6863 16.4457 56.187 15.1881 57.1914 14.2815C58.1958 13.3779 59.698 13.0987 61.6751 12.9261C63.0421 12.8052 66.2394 12.9922 66.2394 12.9922C66.2394 11.0727 65.0048 10.1144 62.5327 10.1144H59.9743C58.331 10.1144 56.9986 8.77908 57.0015 7.13583L57.0043 6.51709ZM65.5774 20.0718C66.0178 19.9192 66.2394 19.6084 66.2394 19.1451V16.2241C64.4522 16.0572 62.2593 16.037 61.3269 16.6471C60.8319 16.9694 60.5815 17.4702 60.5815 18.1522C60.5815 18.7911 60.8405 19.3091 61.3585 19.7063C61.8765 20.1034 62.4895 20.302 63.1946 20.302C64.34 20.3049 65.1343 20.2272 65.5774 20.0718Z" fill="white"/>
<path d="M24.1797 11.0069H25.6762V9.51042C25.6762 7.61392 24.1394 6.07715 22.2429 6.07715H20.7465V7.57363C20.7465 9.47013 22.2832 11.0069 24.1797 11.0069Z" fill="white"/>
<path d="M78.3581 5.40351H79.8747V3.88688C79.8747 1.99038 78.3379 0.453613 76.4414 0.453613H74.9248V1.97024C74.9248 3.86387 76.4616 5.40351 78.3581 5.40351Z" fill="white"/>
<path d="M110.095 9.35514V10.3077H112.262C113.828 10.3077 115.1 9.03858 115.1 7.47015V6.51758H112.933C111.364 6.51758 110.095 7.78959 110.095 9.35514Z" fill="white"/>
<path d="M94.379 2.19471V0.453613H96.7072C98.2353 0.453613 99.4757 1.69396 99.4757 3.2221V4.9632H97.1475C95.6194 4.96032 94.379 3.72285 94.379 2.19471Z" fill="white"/>
<path d="M3.9 27.3592H0.744V35.7832H3.9C6.588 35.7832 8.316 34.0672 8.316 31.5712C8.316 29.0632 6.588 27.3592 3.9 27.3592ZM2.796 34.0072V29.1112H3.768C5.316 29.1112 6.228 30.0232 6.228 31.5712C6.228 33.1192 5.316 34.0072 3.768 34.0072H2.796ZM15.9308 35.7832H18.1028L15.0548 27.3592H12.6788L9.63075 35.7832H11.7788L12.2828 34.2952H15.4268L15.9308 35.7832ZM14.8988 32.7112H12.8228L13.8548 29.6272L14.8988 32.7112ZM24.2024 30.0952C24.2024 30.7552 23.8424 31.1512 23.0744 31.1512H21.8024V29.0632H23.0744C23.8424 29.0632 24.2024 29.4712 24.2024 30.0952ZM19.7504 27.3592V35.7832H21.8024V32.6032H22.2944L24.0464 35.7832H26.3624L24.4184 32.4472C25.7144 32.0632 26.2904 31.0672 26.2904 30.0112C26.2904 28.5472 25.2584 27.3592 23.1944 27.3592H19.7504ZM28.2985 35.7832H30.3505V27.3592H28.2985V35.7832ZM40.4646 33.2152C40.4646 33.8152 40.0686 34.1272 39.3846 34.1272H37.8726V32.2672H39.3606C40.0446 32.2672 40.4646 32.6152 40.4646 33.2152ZM40.2606 29.8912C40.2606 30.4672 39.8886 30.7672 39.2166 30.7672H37.8726V29.0032H39.2166C39.8886 29.0032 40.2606 29.3152 40.2606 29.8912ZM42.5406 33.4912C42.5406 32.5312 41.9046 31.6672 40.9206 31.4632C41.7366 31.2232 42.3486 30.5632 42.3486 29.5432C42.3486 28.2112 41.3286 27.3592 39.6126 27.3592H35.8206V35.7832H39.7446C41.5206 35.7832 42.5406 34.8832 42.5406 33.4912ZM44.4147 32.3872C44.4147 34.7152 45.9387 35.8672 47.8947 35.8672C49.8387 35.8672 51.4707 34.7152 51.4707 32.3872V27.3592H49.4187V32.3992C49.4187 33.3952 48.9027 33.9712 47.9307 33.9712C46.9587 33.9712 46.4667 33.3952 46.4667 32.3992V27.3592H44.4147V32.3872ZM53.6317 35.7832H55.6837V30.7192L57.5797 35.7832H59.2357L61.1197 30.7312V35.7832H63.1717V27.3592H60.7597L58.4197 33.1912L56.0557 27.3592H53.6317V35.7832ZM65.3673 35.7832H67.4193V27.3592H65.3673V35.7832ZM79.0093 33.2752C79.0093 30.4552 74.8453 31.1152 74.8453 29.6512C74.8453 29.1232 75.2173 28.8712 75.7093 28.8832C76.2613 28.8952 76.6453 29.2192 76.6813 29.7592H78.9013C78.8173 28.1512 77.5813 27.2392 75.7453 27.2392C73.9813 27.2392 72.6733 28.1272 72.6733 29.7232C72.6493 32.7112 76.8613 31.8712 76.8613 33.4312C76.8613 33.9232 76.4773 34.2232 75.8773 34.2232C75.3013 34.2232 74.8933 33.9112 74.8333 33.2632H72.6493C72.7093 34.9672 74.1253 35.8672 75.9373 35.8672C77.9053 35.8672 79.0093 34.6912 79.0093 33.2752ZM86.1521 27.3592H80.9921V35.7832H86.1521V34.1392H83.0441V32.2912H85.7921V30.7072H83.0441V29.0032H86.1521V27.3592ZM93.6883 27.3592V32.5792L90.2563 27.3592H88.2043V35.7832H90.2563V30.5872L93.6883 35.7832H95.7403V27.3592H93.6883ZM101.104 27.3592H97.9478V35.7832H101.104C103.792 35.7832 105.52 34.0672 105.52 31.5712C105.52 29.0632 103.792 27.3592 101.104 27.3592ZM99.9998 34.0072V29.1112H100.972C102.52 29.1112 103.432 30.0232 103.432 31.5712C103.432 33.1192 102.52 34.0072 100.972 34.0072H99.9998ZM107.387 35.7832H109.439V27.3592H107.387V35.7832ZM116.098 30.0952C116.098 30.7552 115.738 31.1512 114.97 31.1512H113.698V29.0632H114.97C115.738 29.0632 116.098 29.4712 116.098 30.0952ZM111.646 27.3592V35.7832H113.698V32.6032H114.19L115.942 35.7832H118.258L116.314 32.4472C117.61 32.0632 118.186 31.0672 118.186 30.0112C118.186 28.5472 117.154 27.3592 115.09 27.3592H111.646ZM120.194 35.7832H122.246V27.3592H120.194V35.7832Z" fill="white"/>
</svg>
