<svg width="150" height="49" viewBox="0 0 150 49" fill="none" xmlns="http://www.w3.org/2000/svg">
<path d="M3.48258 35.8877H0V48.1093H3.48258V35.8877Z" fill="#2A7ABD"/>
<path d="M10.6791 35.8877H8.44543V48.1093H10.6791V35.8877Z" fill="#2A7ABD"/>
<path d="M17.4485 41.3696L17.4841 48.1093H23.0194L17.4485 41.3696Z" fill="#A93624"/>
<path d="M17.9172 35.8877L23.506 42.66V35.8877H17.9172Z" fill="#A93624"/>
<path d="M12.7794 35.8877H10.4567V48.1093H12.7794V35.8877Z" fill="#A93624"/>
<path d="M30.4978 35.8877H28.2374V48.1093H30.4978V35.8877Z" fill="#A93624"/>
<path d="M75.0326 35.8877L80.6213 42.66V35.8877H75.0326Z" fill="#F19C26"/>
<path d="M74.564 41.3696L74.5996 48.1093H80.1379L74.564 41.3696Z" fill="#F19C26"/>
<path d="M88.0374 35.8877H85.3499V48.1093H88.0374V35.8877Z" fill="#F19C26"/>
<path d="M69.8918 35.8877H67.6937V48.1093H69.8918V35.8877Z" fill="#F19C26"/>
<path d="M32.3043 35.8877H30.1863V48.1093H32.3043V35.8877Z" fill="#F19C27"/>
<path d="M38.2668 38.3142H37.3116V45.6976H38.3736C39.5632 45.6976 40.462 45.398 41.0701 44.7929C41.6752 44.1907 42.1291 43.2474 42.1291 41.9688C42.1291 40.5598 41.7049 39.5987 41.1532 39.0855C40.6014 38.5693 39.6403 38.3142 38.2668 38.3142Z" fill="#F19C27"/>
<path d="M43.4965 35.8877C44.0216 36.1191 44.4933 36.3979 44.9115 36.7272C46.2969 37.8248 46.991 39.486 46.991 41.7197C46.991 44.2293 46.282 46.0595 44.87 47.2046C44.431 47.5606 43.9326 47.8661 43.3809 48.1093H48.5632V35.8877H43.4965Z" fill="#F19C27"/>
<path d="M52.0132 47.2614C50.4944 45.9918 49.735 44.2149 49.735 41.9367C49.735 39.8187 50.5062 38.1219 52.0458 36.8434C52.4967 36.4696 52.9891 36.1552 53.5201 35.8882H48.2784V48.1098H53.2739C52.8171 47.8695 52.3988 47.5877 52.0132 47.2614Z" fill="#AA3725"/>
<path d="M58.0646 38.2341C56.9819 38.2341 56.1987 38.6049 55.7093 39.3495C55.2228 40.097 54.9766 40.9721 54.9766 41.9718C54.9766 43.0249 55.2139 43.9356 55.6855 44.7069C56.1602 45.4811 56.967 45.8638 58.1061 45.8638C59.1711 45.8638 59.9631 45.5137 60.4852 44.8107C61.0014 44.1076 61.2624 43.1643 61.2624 41.9718C61.2624 40.9454 60.9954 40.0674 60.4615 39.3317C59.9305 38.596 59.1295 38.2341 58.0646 38.2341Z" fill="#AA3725"/>
<path d="M62.7516 35.8877C63.3389 36.1844 63.864 36.5552 64.3268 36.9912C65.7773 38.3677 66.5041 40.0289 66.5041 41.9689C66.5041 44.1996 65.718 45.9587 64.1399 47.2402C63.7335 47.5725 63.2944 47.8602 62.8317 48.1064H68.0555V35.8848H62.7516V35.8877Z" fill="#AA3725"/>
<path d="M89.3723 35.8877H87.717V48.1093H89.3723V35.8877Z" fill="#2C7ABD"/>
<path d="M102.647 35.8877V38.3528H94.255V40.2394H102.11V43.3215H94.255V45.3951H102.97V48.1093H104.697V35.8877H102.647Z" fill="#2C7ABD"/>
<path d="M107.467 47.9848C106.139 47.0978 105.474 46.0151 105.474 44.7395H110.538C110.639 45.2201 110.917 45.5761 111.377 45.8134C111.834 46.0448 112.344 46.1634 112.911 46.1634C113.596 46.1634 114.133 46.0774 114.522 45.9083C114.91 45.7362 115.106 45.4841 115.106 45.1548C115.106 44.6476 114.145 44.1937 112.226 43.7873C110.309 43.3839 108.764 42.9092 107.589 42.3634C106.417 41.8176 105.833 40.7942 105.833 39.2902C105.833 37.8841 106.474 36.8044 107.755 36.0539C107.859 35.9945 107.966 35.9411 108.073 35.8848H104.445V48.1064H107.672C107.61 48.0649 107.536 48.0293 107.467 47.9848Z" fill="#F09B25"/>
<path d="M117.289 35.8877C117.438 35.9708 117.577 36.0597 117.705 36.1547C118.841 36.9734 119.511 38.0413 119.722 39.3673H114.703C114.628 38.8956 114.391 38.5634 113.988 38.3706C113.581 38.1748 113.115 38.0769 112.576 38.0769C111.457 38.0769 110.897 38.335 110.897 38.8541C110.897 39.3614 111.864 39.8271 113.807 40.2483C115.75 40.6755 117.295 41.1501 118.443 41.6752C119.597 42.2002 120.17 43.1792 120.17 44.609C120.17 46.1367 119.481 47.3054 118.108 48.1093C118.108 48.1093 118.108 48.1093 118.105 48.1123H121.611V35.8907H117.289V35.8877Z" fill="#F09B25"/>
<path d="M123.519 35.8877H121.442V48.1093H123.519V35.8877Z" fill="#2C7ABD"/>
<path d="M130.659 35.8877H128.443V48.1093H130.659V35.8877Z" fill="#2C7ABD"/>
<path d="M142.91 35.8877L148.368 48.1093H150V35.8877H142.91Z" fill="#F19C27"/>
<path d="M136.693 48.1095H143.002L142.296 46.5017H137.384L136.693 48.1095Z" fill="#F19C27"/>
<path d="M138.413 43.7547H141.359L139.852 38.7622L138.413 43.7547Z" fill="#F19C27"/>
<path d="M136.883 35.8877H130.3V48.1093H131.424L136.883 35.8877Z" fill="#F19C27"/>
<path d="M29.8718 33.046C27.0597 31.6962 23.5207 28.8337 22.3698 22.8267V33.046H29.8718Z" fill="#2A7ABD"/>
<path d="M69.0405 5.37231C64.8489 5.37231 63.9293 9.40071 63.9293 14.2716V19.8544H63.9441C64.0865 24.3396 65.4185 27.9171 69.0405 27.9171C73.232 27.9171 74.1486 23.8857 74.1486 19.0178V14.236C74.1427 9.37994 72.8731 5.37231 69.0405 5.37231Z" fill="#2A7ABD"/>
<path d="M53.3659 11.6521C53.7634 8.14872 55.4246 1.99933 62.0516 0.00292969H45.1371C47.7802 0.931419 52.4938 3.69315 53.3659 11.6521Z" fill="#2A7ABD"/>
<path d="M30.8567 0.00292969H22.3698V10.3528C23.0194 6.79306 24.9921 1.77092 30.8567 0.00292969Z" fill="#2A7ABD"/>
<path d="M37.8515 5.37231C33.6599 5.37231 32.7404 9.40071 32.7404 14.2716V19.8544H32.7552C32.8976 24.3396 34.2295 27.9171 37.8515 27.9171C42.043 27.9171 42.9597 23.8857 42.9597 19.0178V14.236C42.9537 9.37994 41.6841 5.37231 37.8515 5.37231Z" fill="#2A7ABD"/>
<path d="M46.1189 33.0458H61.0608C58.1062 31.6249 54.3448 28.5368 53.4015 21.8743C53.0396 25.3361 51.5801 30.8091 46.1189 33.0458Z" fill="#2A7ABD"/>
<path d="M87.7171 8.47197C88.2421 8.47197 88.6189 8.24059 88.8503 7.78672C89.0787 7.33286 89.1944 6.70695 89.1944 5.90898C89.1944 5.11992 89.1143 4.49103 88.957 4.02531C88.7998 3.55364 88.3756 3.32227 87.6874 3.32227C87.0674 3.32227 86.6699 3.58331 86.4949 4.10837C86.3169 4.63342 86.225 5.2445 86.225 5.93271C86.225 6.76924 86.3347 7.40109 86.5453 7.83122C86.7589 8.26135 87.1475 8.47197 87.7171 8.47197Z" fill="#2A7ABD"/>
<path d="M100.123 12.6904C99.4997 12.6904 99.1022 12.9515 98.9271 13.4765C98.7492 14.0046 98.6602 14.6127 98.6602 15.3009C98.6602 16.1404 98.764 16.7722 98.9776 17.1994C99.1911 17.6266 99.5827 17.8401 100.149 17.8401C100.674 17.8401 101.051 17.6117 101.282 17.1579C101.511 16.701 101.627 16.0751 101.627 15.2771C101.627 14.4881 101.549 13.8622 101.389 13.3935C101.235 12.9248 100.808 12.6904 100.123 12.6904Z" fill="#2A7ABD"/>
<path d="M11.2427 10.8274C11.2427 10.8274 7.53174 13.7049 3.67243 14.6897V6.96516C3.67243 6.96516 9.92268 4.73737 12.6251 0H0V33.043H11.2427V10.8274Z" fill="#2A7ABD"/>
<path d="M76.2964 0.00292969C78.189 0.685206 81.1791 2.34936 83.0865 6.357C83.0687 6.17308 83.0598 5.98323 83.0598 5.79041C83.0598 4.29533 83.5018 3.18886 84.3769 2.47692C85.255 1.76498 86.3674 1.40604 87.7171 1.40604C89.144 1.40604 90.2771 1.77982 91.1077 2.52439C91.9354 3.27192 92.3536 4.35763 92.3536 5.77558C92.3536 7.14013 91.9858 8.24958 91.2531 9.10687C90.5144 9.96417 89.3397 10.3943 87.7171 10.3943C86.0945 10.3943 84.9138 9.96416 84.1722 9.10983C84.1337 9.0683 84.101 9.01788 84.0684 8.97338C84.5786 10.7888 84.8931 12.9484 84.899 15.5173V18.8486C84.899 18.8486 85.2431 29.6167 77.3673 33.0429H106.738V0.00292969H76.2964ZM87.7735 19.8156L97.711 1.44757H100.152L90.2742 19.8156H87.7735ZM103.685 18.4719C102.953 19.3321 101.772 19.7593 100.152 19.7593C98.5297 19.7593 97.3491 19.3321 96.6075 18.4808C95.8659 17.6264 95.498 16.517 95.498 15.1554C95.498 13.6633 95.9341 12.5568 96.8121 11.8419C97.6902 11.13 98.8026 10.771 100.152 10.771C101.579 10.771 102.712 11.1448 103.543 11.8923C104.374 12.6369 104.786 13.7197 104.786 15.1406C104.786 16.5051 104.424 17.6116 103.685 18.4719Z" fill="#2A7ABD"/>
<path d="M114.118 21.5777C114.118 21.5777 109.277 14.9893 109.046 8.48095C109.046 8.48095 109.007 3.27786 112.507 0.00292969H106.551V33.0459H122.08C120.834 31.4381 117.203 26.6325 114.118 21.5777Z" fill="#CB202A"/>
<path d="M125.874 0.00292969C127.072 0.88099 128.304 2.05569 129.49 3.63679C129.49 3.63679 133.272 0.762332 138.95 0.762332C138.95 0.762332 147.351 0.385595 147.656 10.8274C147.656 10.8274 148.564 17.5641 139.861 23.9241C139.861 23.9241 133.723 29.0264 128.028 33.0459H149.926V0.00292969H125.874Z" fill="#CB202A"/>
</svg>
