<svg width="68" height="68" viewBox="0 0 68 68" fill="none" xmlns="http://www.w3.org/2000/svg">
<rect width="68" height="68" rx="10" fill="#FE7614"/>
<path fill-rule="evenodd" clip-rule="evenodd" d="M24.2284 23.2496H14.626C13.491 23.2496 12.4836 24.1932 12.5601 25.3282L14.4985 52.1844C14.7025 55.0919 16.5133 57.4766 19.9309 57.4766H47.3992C50.4725 57.4766 52.5894 55.551 52.8317 52.1844L54.7573 25.3154C54.8466 24.1805 53.8264 23.2496 52.6914 23.2496H43.1017C42.8084 19.9978 41.903 17.0647 40.6023 14.8203C38.868 11.8491 36.4323 10 33.6651 10C30.8978 10 28.4494 11.8363 26.7279 14.8203C25.4271 17.0775 24.5217 19.9978 24.2284 23.2496ZM40.6788 23.2496H26.6258C26.9191 20.4441 27.6843 17.9319 28.7937 16.0318C30.0945 13.7874 31.816 12.3974 33.6651 12.3974C35.5014 12.3974 37.2357 13.7874 38.5109 16.0191C39.6204 17.9319 40.3983 20.4313 40.6788 23.2496ZM26.4346 46.7007C26.1285 47.1471 26.2433 47.7464 26.6896 48.0525C27.0339 48.2948 27.3655 48.4988 27.6843 48.6773C30.2347 50.2331 32.6577 50.9982 34.7363 50.9982C36.9552 50.9855 38.7787 50.1183 39.9647 48.3713C39.9718 48.3594 39.9794 48.3467 39.9875 48.333C40.0228 48.2734 40.0682 48.1969 40.1305 48.1035C40.462 47.5679 40.7043 47.0195 40.8573 46.4712C41.2017 45.247 41.1379 43.9973 40.6278 42.8113C40.1305 41.6636 39.1996 40.6052 37.8096 39.7635C36.9679 39.2534 35.9477 38.8198 34.749 38.4755C32.5301 37.8507 30.9361 37.0473 30.171 36.0144C29.5079 35.1217 29.4951 33.9485 30.3112 32.4565C30.7958 31.5638 31.8925 31.0027 33.3335 30.888C34.8383 30.7732 36.6491 31.143 38.5492 32.1122C39.0338 32.3672 39.6076 32.1759 39.8627 31.6913C40.1177 31.2068 39.9264 30.6202 39.4418 30.3779C37.2102 29.2429 35.0168 28.8093 33.1932 28.9496C31.0764 29.1154 29.4058 30.0463 28.5897 31.5383C27.3655 33.7955 27.4547 35.6573 28.6024 37.2003C29.6481 38.6031 31.5865 39.6487 34.2134 40.3884C35.2464 40.6689 36.1008 41.0387 36.7894 41.4596C37.8223 42.0844 38.4854 42.8368 38.8297 43.6147C39.1485 44.3543 39.1868 45.1705 38.9573 45.9611C38.8425 46.3437 38.6767 46.739 38.4472 47.1088C38.4406 47.1284 38.4241 47.1514 38.4026 47.1811C38.3821 47.2094 38.3573 47.2438 38.3324 47.2873C37.529 48.4733 36.2665 49.0599 34.7108 49.0599C32.9892 49.0599 30.9234 48.384 28.679 47.0195C28.3601 46.8283 28.0668 46.637 27.7863 46.4457C27.34 46.1396 26.7406 46.2544 26.4346 46.7007Z" fill="white"/>
</svg>
