<svg width="68" height="68" viewBox="0 0 68 68" fill="none" xmlns="http://www.w3.org/2000/svg">
<rect width="68" height="68" rx="10" fill="#0DB61E"/>
<path fill-rule="evenodd" clip-rule="evenodd" d="M33.8394 20.8616C36.0485 19.7571 38.729 19.1556 41.1826 18.9429L43.9377 18.7033C46.9578 18.443 49.9795 18.6017 53.0012 18.6017H54.6597V20.2602C54.6597 27.6192 54.6597 34.9815 54.6597 42.3422V43.1881C54.6597 50.7868 48.4464 57 40.8445 57H13V18.6017H14.6569C17.6833 18.6017 20.694 18.4033 23.7188 18.6382L26.4755 18.8461C29.0925 19.0429 31.489 19.6793 33.8394 20.8616V20.8616Z" fill="#4D4C4B"/>
<path fill-rule="evenodd" clip-rule="evenodd" d="M14.6569 20.2599V39.1758V42.3419V43.1878V55.3445H26.8104H28.7212H40.8445C47.5323 55.3445 53.0012 49.8724 53.0012 43.1878V42.3419C53.0012 35.0241 53.0012 27.8856 53.0012 20.2599C50.097 20.2599 47.0276 20.1885 44.0821 20.3551L41.3254 20.5932C38.6275 20.9201 35.8977 21.5502 33.8298 22.7436C31.5969 21.4534 29.1624 20.8122 26.3501 20.498L23.5935 20.2885C20.5876 20.1488 17.5056 20.2599 14.6569 20.2599V20.2599Z" fill="#5FB74E"/>
<path fill-rule="evenodd" clip-rule="evenodd" d="M18.0942 55.3446H26.8102H28.721H40.8444C43.8074 55.3446 46.5292 54.2702 48.6415 52.4943C46.1737 46.7571 40.4699 42.7419 33.8281 42.7419C26.1342 42.7419 19.6987 48.1315 18.0942 55.3446V55.3446Z" fill="#89C45F"/>
<path fill-rule="evenodd" clip-rule="evenodd" d="M33.83 55.3448L40.9875 55.2385C43.9092 55.2385 46.5707 54.2069 48.6434 52.4961C51.3112 50.2901 53.0014 46.951 53.0014 43.1881V42.3422C53.0014 35.0244 53.0014 27.8859 53.0014 20.2602C50.0971 20.2602 47.0277 20.1888 44.0822 20.3554L41.3255 20.5935C38.6276 20.9204 35.8979 21.5505 33.83 22.7439V55.3448V55.3448Z" fill="#4A9E4B"/>
<path fill-rule="evenodd" clip-rule="evenodd" d="M33.83 55.3446H40.8891C43.8521 55.3446 46.5294 54.2702 48.6434 52.4959C46.2025 46.8222 40.3749 42.8324 33.83 42.7451V55.3446Z" fill="#5FB74E"/>
<path fill-rule="evenodd" clip-rule="evenodd" d="M44.0821 19.2064C43.5552 14.0327 39.1814 10 33.8727 10C28.5657 10 24.195 13.9977 23.5935 19.1429L26.3502 19.3524C26.8374 15.6372 30.0035 12.763 33.8616 12.763C37.7181 12.763 40.9128 15.6848 41.3255 19.4445L44.0821 19.2064Z" fill="#4D4C4B"/>
<path fill-rule="evenodd" clip-rule="evenodd" d="M38.3132 44.3592C37.1119 45.6304 35.9121 46.9 34.7123 48.1728L33.8283 49.1092L32.9459 48.1728C31.7461 46.9032 30.5463 45.6304 29.3449 44.3592L28.7244 43.699L29.1783 42.9166C30.1416 41.255 31.9429 40.3615 33.8283 40.3615C35.7168 40.3615 37.5165 41.255 38.4799 42.9166L38.9354 43.699L38.3132 44.3592Z" fill="#4D4C4B"/>
<path fill-rule="evenodd" clip-rule="evenodd" d="M37.429 43.526C36.2308 44.7972 35.0278 46.0669 33.828 47.3397C32.6282 46.0669 31.4284 44.7972 30.2271 43.526C30.9857 42.2199 32.4092 41.574 33.828 41.5756C35.2484 41.574 36.6704 42.2199 37.429 43.526Z" fill="#FDF8B4"/>
<path fill-rule="evenodd" clip-rule="evenodd" d="M37.4292 43.526C36.231 44.7972 35.028 46.0669 33.8282 47.3397V41.5756C35.2486 41.574 36.6706 42.2199 37.4292 43.526Z" fill="#FCD066"/>
<path fill-rule="evenodd" clip-rule="evenodd" d="M24.8313 25.0417C30.2098 25.0417 34.5725 29.4061 34.5725 34.7814C34.5725 40.1599 30.2098 44.5226 24.8313 44.5226C19.4528 44.5226 15.0917 40.1599 15.0917 34.7814C15.0917 29.4061 19.4528 25.0417 24.8313 25.0417Z" fill="#4D4C4B"/>
<path fill-rule="evenodd" clip-rule="evenodd" d="M24.8312 26.6986C29.2955 26.6986 32.9155 30.3186 32.9155 34.7814C32.9155 39.2457 29.2955 42.8657 24.8312 42.8657C20.3653 42.8657 16.7484 39.2457 16.7484 34.7814C16.7484 30.3186 20.3653 26.6986 24.8312 26.6986Z" fill="#EEEFEE"/>
<path fill-rule="evenodd" clip-rule="evenodd" d="M24.8314 26.6986C28.5149 26.6986 31.6255 29.1649 32.5984 32.5357C31.6255 35.905 28.5149 38.3713 24.8314 38.3713C21.1463 38.3713 18.0405 35.905 17.066 32.5357C18.0405 29.1649 21.1463 26.6986 24.8314 26.6986Z" fill="#FEFEFE"/>
<path fill-rule="evenodd" clip-rule="evenodd" d="M42.8268 25.0417C48.2053 25.0417 52.5664 29.4061 52.5664 34.7814C52.5664 40.1599 48.2053 44.5226 42.8268 44.5226C37.4483 44.5226 33.0856 40.163 33.0856 34.7814C33.0856 29.4061 37.4483 25.0417 42.8268 25.0417Z" fill="#4D4C4B"/>
<path fill-rule="evenodd" clip-rule="evenodd" d="M42.8268 26.6986C47.2895 26.6986 50.9096 30.3186 50.9096 34.7814C50.9096 39.2457 47.2895 42.8657 42.8268 42.8657C38.3625 42.8657 34.744 39.2457 34.744 34.7814C34.744 30.3186 38.3625 26.6986 42.8268 26.6986Z" fill="#EEEFEE"/>
<path fill-rule="evenodd" clip-rule="evenodd" d="M42.8268 26.6986C46.5103 26.6986 49.6193 29.1649 50.5921 32.5357C49.6193 35.905 46.5103 38.3713 42.8268 38.3713C39.1417 38.3713 36.0327 35.905 35.0582 32.5357C36.0327 29.1649 39.1417 26.6986 42.8268 26.6986Z" fill="#FEFEFE"/>
<path fill-rule="evenodd" clip-rule="evenodd" d="M25.8471 29.7551C28.7307 29.7551 31.0684 32.0928 31.0684 34.9717C31.0684 37.8569 28.7307 40.1947 25.8471 40.1947C22.9634 40.1947 20.6257 37.8569 20.6257 34.9717C20.6257 34.0116 20.8876 33.1117 21.3415 32.3372C21.7144 33.2593 22.6159 33.9068 23.6728 33.9068C25.0615 33.9068 26.1883 32.7832 26.1883 31.3945C26.1883 30.7692 25.9598 30.1979 25.5836 29.7599C25.6709 29.7551 25.7598 29.7551 25.8471 29.7551V29.7551Z" fill="#4D4C4B"/>
<path fill-rule="evenodd" clip-rule="evenodd" d="M41.8094 29.7551C44.6946 29.7551 47.0307 32.0928 47.0307 34.9717C47.0307 37.8569 44.6946 40.1946 41.8078 40.1946C38.9273 40.1946 36.5896 37.8569 36.5896 34.9717C36.5896 34.0116 36.8499 33.1117 37.3022 32.3372C37.6767 33.2593 38.5797 33.9068 39.6367 33.9068C41.0238 33.9068 42.149 32.7832 42.149 31.3945C42.149 30.7692 41.9236 30.1979 41.5475 29.7599C41.6348 29.7551 41.7205 29.7551 41.8094 29.7551Z" fill="#4D4C4B"/>
</svg>
