<svg width="80" height="80" viewBox="0 0 80 80" fill="none" xmlns="http://www.w3.org/2000/svg">
<path d="M32.2539 38.4527L32.2539 38.4527C31.7103 38.9813 31.6979 39.8502 32.226 40.3939L32.2262 40.3942L36.8989 45.1909L36.8988 45.1909L36.9006 45.1927C37.4295 45.7248 38.2845 45.7431 38.8355 45.2334L38.8355 45.2334L38.8372 45.2317L47.766 36.81C48.0311 36.56 48.186 36.2148 48.1962 35.8505C48.2064 35.4864 48.0715 35.1331 47.8208 34.8685L47.8208 34.8685L47.8195 34.8671C47.2903 34.317 46.418 34.293 45.859 34.8124L46.0291 34.9955L45.8575 34.8138L37.9189 42.312L34.1948 38.4807C34.1948 38.4807 34.1948 38.4806 34.1947 38.4806C33.6666 37.937 32.7971 37.9246 32.2539 38.4527Z" fill="#EAB61A" stroke="#EAB61A" stroke-width="0.5"/>
<path d="M40.0059 23.1955C30.7284 23.1955 23.1846 30.7393 23.1846 40.0169C23.1846 49.2949 30.7284 56.8386 40.0059 56.8386C49.2839 56.8386 56.8277 49.2949 56.8277 40.0169C56.8277 30.7393 49.2839 23.1955 40.0059 23.1955ZM40.0059 54.5868C31.9669 54.5868 25.4364 48.0449 25.4364 40.0169C25.4364 31.9888 31.9669 25.4474 40.0059 25.4474C48.0529 25.4474 54.5758 31.9703 54.5758 40.0169C54.5758 48.0634 48.0529 54.5868 40.0059 54.5868Z" fill="#EAB61A"/>
<path d="M63.155 33.8243L63.5266 27.1474C63.5526 26.6992 63.3089 26.2783 62.9074 26.0777L56.9623 23.0715L53.9561 17.1265C53.7516 16.7285 53.3334 16.4861 52.8865 16.5072L46.1982 16.8679L40.6248 13.1857C40.2492 12.9381 39.7623 12.9381 39.3862 13.1857L33.8128 16.8679L27.1364 16.4962C26.6877 16.4699 26.2673 16.7135 26.0667 17.1155L23.0601 23.0606L17.1155 26.0667C16.717 26.2708 16.4751 26.6891 16.4962 27.1364L16.8674 33.8133L13.1857 39.3867C12.9381 39.7623 12.9381 40.2492 13.1857 40.6252L16.8565 46.2096L16.4848 52.8865C16.4589 53.3347 16.7021 53.7556 17.1041 53.9562L23.0491 56.9623L26.0553 62.9074C26.2594 63.3058 26.6776 63.5477 27.1249 63.5266L33.8018 63.155L39.3752 66.8367C39.7486 67.0923 40.2404 67.0923 40.6138 66.8367L46.1872 63.155L52.8641 63.5266C53.3123 63.5526 53.7327 63.3089 53.9337 62.9074L56.9399 56.9623L62.8849 53.9562C63.283 53.7516 63.5253 53.3338 63.5042 52.8865L63.1326 46.2096L66.8143 40.6362C67.0619 40.2606 67.0619 39.7733 66.8143 39.3977L63.155 33.8243ZM61.0606 45.2864C60.9233 45.4879 60.8596 45.7302 60.8807 45.9734L61.2295 52.2897L55.6112 55.127C55.397 55.2343 55.2233 55.4084 55.116 55.6226L52.2782 61.2409L45.962 60.8921C45.7201 60.8833 45.4813 60.9458 45.275 61.072L40.0055 64.5514L34.7365 61.072C34.5535 60.9484 34.338 60.8816 34.1172 60.8807H34.0609L27.7442 61.2299L24.9069 55.6112C24.7996 55.397 24.6259 55.2233 24.4112 55.116L18.7815 52.2897L19.1308 45.9734C19.1396 45.7315 19.0767 45.4927 18.9504 45.2864L15.4715 40.0169L18.9504 34.7475C19.0881 34.5465 19.1519 34.3037 19.1308 34.0609L18.7815 27.7442L24.4002 24.9069C24.6144 24.7996 24.7882 24.6259 24.8955 24.4117L27.7328 18.793L34.0495 19.1422C34.2909 19.1506 34.5297 19.0881 34.7365 18.9619L40.0055 15.4829L45.275 18.9619C45.4764 19.0995 45.7192 19.1633 45.962 19.1422L52.2782 18.793L55.116 24.4117C55.2233 24.6259 55.397 24.7996 55.6112 24.9069L61.2295 27.7442L60.8807 34.0609C60.8719 34.3024 60.9348 34.5412 61.0606 34.7475L64.54 40.0169L61.0606 45.2864Z" fill="#EAB61A"/>
</svg>
