<svg width="80" height="80" viewBox="0 0 80 80" fill="none" xmlns="http://www.w3.org/2000/svg">
<path d="M67.709 23.3131C66.1691 22.4466 64.3351 22.8233 63.3577 23.7833C57.0527 29.9781 57.0902 30.0652 56.337 30.3444C55.4008 30.6917 54.4331 30.5001 53.6637 29.8808C42.0725 20.1417 42.8151 20.7603 42.7122 20.6888C41.1254 19.5892 39.1285 19.907 38.0607 20.9322C26.685 31.8463 27.3285 31.288 26.8645 31.5369C25.5543 32.2392 24.2382 31.7752 23.2893 30.6813C17.3574 23.8434 17.7953 24.3362 17.6603 24.2193C14.7497 21.7004 10.5653 24.3862 11.0366 28.5285C12.3249 41.4736 13.1978 50.2448 13.1989 50.2563C13.6164 54.4513 13.4812 53.1436 13.5125 53.4043C13.9098 56.8051 16.3972 59.5229 19.5591 59.5229H61.3916C64.6486 59.5229 67.12 56.6254 67.4413 53.3752L69.9643 28.099C70.193 26.0911 69.309 24.2137 67.709 23.3131V23.3131ZM14.9994 26.7494C15.0913 26.7009 15.1763 26.6721 15.3247 26.7758L20.6779 32.9466C23.3495 36.0263 27.3747 35.9955 29.8742 33.5774L40.3657 23.5115C40.4809 23.4399 40.5824 23.4369 40.697 23.5012C52.0155 33.0112 51.4545 32.5402 51.4774 32.5588C53.1905 33.9448 55.4304 34.3674 57.5388 33.5858C59.1686 32.9815 59.3853 32.5326 65.6915 26.3366C65.8244 26.2504 65.9057 26.2652 66.0132 26.3257C66.3195 26.4981 66.6114 27.0059 66.5288 27.7135C66.5259 27.7382 66.6016 26.9812 64.4691 48.3453H16.4827C14.4548 27.9688 14.4746 28.1648 14.472 28.1436C14.382 27.3732 14.7382 26.8878 14.9994 26.7494V26.7494ZM61.3916 56.0659H19.559C18.2768 56.0659 17.1559 54.7562 16.9476 53.0169L16.8267 51.8023H64.124L64.0027 53.0165C63.7946 54.7559 62.6739 56.0659 61.3916 56.0659V56.0659Z" fill="#A5664B"/>
</svg>
