<svg width="80" height="80" viewBox="0 0 80 80" fill="none" xmlns="http://www.w3.org/2000/svg">
<path d="M62.2856 16H17.7143C16.7675 16 16 16.7675 16 17.7143V26.2857C16.0001 26.7714 16.2063 27.2344 16.5674 27.5594L33.1428 42.4771V62.2856C33.1424 63.2324 33.9095 64.0002 34.8564 64.0007C35.1226 64.0008 35.3853 63.9389 35.6235 63.8199L45.9091 58.6771C46.4903 58.3867 46.8575 57.7925 46.8572 57.1427V42.4771L63.4326 27.5629C63.7946 27.2371 64.0009 26.7727 64 26.2857V17.7143C63.9999 16.7675 63.2324 16 62.2856 16ZM60.5713 25.5228L43.9959 40.437C43.6339 40.7628 43.4277 41.2271 43.4285 41.7142V56.0833L36.5714 59.5119V41.7142C36.5713 41.2285 36.3651 40.7655 36.0039 40.4406L19.4285 25.5228V19.4285H60.5713V25.5228Z" fill="#A5664B"/>
<path d="M31.72 32.84H39.624V30.984H34.904C36.76 29.416 39.368 27.304 39.368 24.6C39.368 22.568 38.104 21.08 35.592 21.08C33.496 21.08 31.784 22.312 31.704 24.984H33.88C33.896 23.752 34.488 22.984 35.56 22.984C36.664 22.984 37.128 23.688 37.128 24.728C37.128 26.872 34.36 28.936 31.72 31.176V32.84ZM46.1875 33H48.7155L45.7715 28.552L48.6835 24.136H46.2835L44.6515 26.872L42.8435 24.136H40.3155L43.2435 28.552L40.3475 33H42.7475L44.3635 30.248L46.1875 33Z" fill="#A5664B"/>
</svg>
