<svg width="236" height="43" viewBox="0 0 236 43" fill="none" xmlns="http://www.w3.org/2000/svg">
<path d="M7.69165 11.8075C10.8639 11.0934 13.6998 10.7363 16.1993 10.7363C20.4427 10.7363 23.6357 11.5695 25.7781 13.2358C27.9206 14.9022 28.9918 17.6397 28.9918 21.4433V41.6722H20.1271V23.2287C20.1271 19.777 18.1813 18.0537 14.2949 18.0537C13.4203 18.0537 12.5302 18.152 11.6194 18.3487C10.7086 18.5505 9.9945 18.7886 9.47701 19.0628V41.6722H0.612305V14.1259C2.15962 13.2928 4.5194 12.5217 7.69165 11.8075Z" fill="#007934"/>
<path d="M39.6049 39.4727C37.0847 37.4131 35.8271 34.3185 35.8271 30.194V26.1058C35.8271 22.5144 38.7355 19.606 42.3269 19.606H44.6919V29.4799C44.6919 31.3843 45.1162 32.8022 45.9701 33.7337C46.8239 34.6652 48.1798 35.1309 50.0479 35.1309C51.9109 35.1309 53.2719 34.6652 54.1258 33.7337C54.9797 32.8022 55.404 31.3843 55.404 29.4799V11.5693H63.7305V30.194C63.7305 34.3599 62.5299 37.4648 60.1339 39.5038C57.7328 41.5479 54.3535 42.5673 49.991 42.5673C45.582 42.5673 42.1199 41.5375 39.6049 39.4727Z" fill="#007934"/>
<path d="M92.9852 12.7491C92.9852 15.5591 90.703 17.8413 87.893 17.8413H83.1683C81.7245 17.8413 80.6533 18.0638 79.9547 18.514C79.2509 18.9642 78.9041 19.5956 78.9041 20.4132C78.9041 21.3861 79.2923 22.1003 80.0737 22.5453C80.8551 22.9955 82.0971 23.4509 83.8152 23.9219C85.761 24.429 87.3031 24.9258 88.4312 25.4122C89.5594 25.8987 90.5737 26.737 91.4689 27.9273C92.3642 29.1175 92.8144 30.7839 92.8144 32.9263C92.7368 36.2797 91.4689 38.7222 89.016 40.2592C86.5631 41.7962 83.4426 42.5672 79.6649 42.5672C77.7967 42.5672 76.1562 42.3809 74.7538 42.0135C73.3514 41.6409 71.7937 41.1079 70.0757 40.4041V32.7452C73.2324 35.1256 76.5444 36.3107 80.0116 36.3107C81.3364 36.3107 82.2989 36.0882 82.9044 35.638C83.5098 35.1929 83.81 34.5771 83.81 33.7957C83.81 32.9004 83.3236 32.238 82.3507 31.8085C81.3778 31.379 79.8149 30.9132 77.6725 30.4061C75.411 29.9403 73.5532 29.0037 72.0887 27.6013C70.6294 26.1988 69.8945 24.1547 69.8945 21.4638C69.8945 19.1661 70.4793 17.2772 71.6488 15.7972C72.8184 14.3171 74.2881 13.2356 76.0631 12.5525C77.8381 11.8694 79.6752 11.5278 81.5848 11.5278H92.9748V12.7491H92.9852Z" fill="#007934"/>
<path d="M162.765 41.6715H151.52L142.122 29.2361L142.06 41.6715H133.252V15.921C133.252 12.3865 136.119 9.51953 139.653 9.51953H142.174L142.111 22.6898L151.214 11.5636H161.983L149.548 24.6511L162.765 41.6715Z" fill="#007934"/>
<path d="M168.415 41.672V11.5278H177.28L177.342 41.672H168.415Z" fill="#007934"/>
<path d="M196.494 18.3483V32.2689C196.494 33.2987 196.712 34.0646 197.146 34.5614C197.581 35.0582 198.316 35.3066 199.346 35.3066C199.982 35.3066 200.634 35.1979 201.307 34.9806C201.98 34.7632 203.424 34.2716 203.941 33.8783C203.941 33.8783 204.252 37.713 206.384 40.3677C204.64 41.4958 199.739 42.8672 197.56 42.8672C194.109 42.8672 191.521 42.0547 189.798 40.4298C188.075 38.8049 187.211 36.4658 187.211 33.4074V18.3534H182.807V11.5691H187.211V0.624023H196.489V11.5691" fill="#007934"/>
<path d="M210.586 11.5278H222.97C231.633 11.5278 236 16.4078 236 21.7432L235.938 35.4258C235.897 37.9253 234.65 39.7365 232.191 40.8699C229.733 42.0032 226.142 42.5672 221.422 42.5672C212.615 42.5672 208.216 39.1362 208.216 32.2742C208.216 29.3814 209.116 27.12 210.922 25.4899C212.728 23.8649 215.43 23.363 218.985 23.0525C221.443 22.8351 227.192 23.1715 227.192 23.1715C227.192 19.7198 224.972 17.9965 220.527 17.9965H215.927C212.972 17.9965 210.576 15.5954 210.581 12.6405L210.586 11.5278ZM226.002 35.9019C226.794 35.6276 227.192 35.0687 227.192 34.2356V28.983C223.979 28.6828 220.035 28.6466 218.359 29.7437C217.469 30.3233 217.018 31.2237 217.018 32.4502C217.018 33.599 217.484 34.5305 218.416 35.2447C219.347 35.9588 220.449 36.3159 221.717 36.3159C223.782 36.3211 225.21 36.1813 226.002 35.9019Z" fill="#007934"/>
<path d="M101.026 11.5278H113.41C122.073 11.5278 126.441 16.4078 126.441 21.7432L126.379 35.4258C126.337 37.9253 125.09 39.7365 122.632 40.8699C120.174 42.0032 116.582 42.5672 111.863 42.5672C103.055 42.5672 98.6562 39.1362 98.6562 32.2742C98.6562 29.3814 99.5567 27.12 101.363 25.4899C103.169 23.8649 105.87 23.363 109.425 23.0525C111.883 22.8351 117.633 23.1715 117.633 23.1715C117.633 19.7198 115.413 17.9965 110.967 17.9965H106.367C103.412 17.9965 101.016 15.5954 101.021 12.6405L101.026 11.5278ZM116.443 35.9019C117.234 35.6276 117.633 35.0687 117.633 34.2356V28.983C114.419 28.6828 110.476 28.6466 108.799 29.7437C107.909 30.3233 107.459 31.2237 107.459 32.4502C107.459 33.599 107.925 34.5305 108.856 35.2447C109.788 35.9588 110.89 36.3159 112.158 36.3159C114.217 36.3211 115.646 36.1813 116.443 35.9019Z" fill="#007934"/>
<path d="M42.0019 19.601H44.6928V16.9101C44.6928 13.4998 41.9294 10.7363 38.5191 10.7363H35.8281V13.4273C35.8281 16.8376 38.5916 19.601 42.0019 19.601Z" fill="#007934"/>
<path d="M139.426 9.52495H142.153V6.79775C142.153 3.38745 139.389 0.624023 135.979 0.624023H133.252V3.35123C133.252 6.75635 136.015 9.52495 139.426 9.52495Z" fill="#007934"/>
<path d="M196.495 16.6303V18.3433H200.392C203.207 18.3433 205.494 16.0611 205.494 13.2407V11.5278H201.598C198.777 11.5278 196.495 13.8152 196.495 16.6303Z" fill="#007934"/>
<path d="M168.234 3.75488V0.624023H172.421C175.169 0.624023 177.399 2.85443 177.399 5.60233V8.73318H173.213C170.465 8.72801 168.234 6.50278 168.234 3.75488Z" fill="#007934"/>
</svg>
