<svg width="106" height="106" viewBox="0 0 106 106" fill="none" xmlns="http://www.w3.org/2000/svg">
<circle cx="53" cy="53" r="53" fill="#007934"/>
<path d="M77 53.2867V53.2933C77 53.2911 77 53.2889 77 53.2867ZM77 54.5111V57.488L73.6441 57.9155L70.4937 58.3169L69.5179 61.3392C69.2281 62.2366 68.8696 63.0992 68.4514 63.9151L66.9986 66.7493L68.9529 69.2641L71.0149 71.9173L68.92 74.0121L66.2642 71.9497L63.7549 70.0011L60.9249 71.4452C60.104 71.8641 59.2356 72.225 58.3318 72.5187L55.3167 73.4984L54.9168 76.6433L54.4901 80H51.5135L51.0854 76.6396L50.684 73.4891L47.6616 72.5133C46.7641 72.2236 45.9015 71.8651 45.0856 71.4469L42.2515 69.9942L39.7369 71.9483L37.0818 74.0115L34.9883 71.9181L37.0505 69.2628L38.9994 66.7533L37.5551 63.9232C37.1362 63.1022 36.7753 62.2339 36.4816 61.3302L35.5019 58.3151L32.3569 57.9153L29 57.4886V54.5121L32.3579 54.0845L35.5021 53.6842L36.4816 50.6698C36.7772 49.7602 37.1356 48.8953 37.551 48.0849L39.0039 45.2507L37.0495 42.7359L34.9867 40.0816L37.0818 37.9879L39.7345 40.0493L42.2491 42.0033L45.0831 40.5507C45.8933 40.1355 46.7573 39.7775 47.6677 39.4823L50.6855 38.5038L51.0856 35.3567L51.5123 32H54.4894L54.917 35.3577L55.3176 38.504L58.3347 39.4823C59.2392 39.7756 60.1066 40.136 60.9274 40.5548L63.7593 41.9999L66.2692 40.0483L68.9195 37.9874L71.0141 40.0819L68.9519 42.7372L67.003 45.2467L68.4473 48.0768C68.8662 48.8978 69.2271 49.7661 69.5208 50.6698L70.5006 53.6849L73.6455 54.0847L77 54.5111ZM71.7583 39.1236L71.7578 39.1243L71.7583 39.1236ZM69.8773 74.7555L69.8765 74.7549L69.8773 74.7555ZM35.9174 56C35.9174 65.4244 43.577 73.0833 53.0012 73.0833C62.4255 73.0833 70.085 65.4244 70.085 56C70.085 46.5756 62.4255 38.9167 53.0012 38.9167C43.577 38.9167 35.9174 46.5756 35.9174 56Z" fill="#F9C836" stroke="#F9C836" stroke-width="10"/>
</svg>
