<svg width="106" height="106" viewBox="0 0 106 106" fill="none" xmlns="http://www.w3.org/2000/svg">
<circle cx="53" cy="53" r="53" fill="#007934"/>
<path d="M69.2194 32.6719C65.717 32.6719 62.8652 35.5236 62.8652 39.026C62.8652 42.5284 65.717 45.3801 69.2194 45.3801C72.7217 45.3801 75.5735 42.5285 75.5735 39.026C75.5735 35.5236 72.7217 32.6719 69.2194 32.6719ZM69.2194 42.8385C67.1174 42.8385 65.4069 41.128 65.4069 39.026C65.4069 36.924 67.1174 35.2135 69.2194 35.2135C71.3214 35.2135 73.0319 36.924 73.0319 39.026C73.0319 41.128 71.3212 42.8385 69.2194 42.8385Z" fill="#F9C836" stroke="#F9C836" stroke-width="3"/>
<path d="M76.6459 26H60.524C57.4689 26 54.5969 27.1895 52.4364 29.3499L24.168 57.6184C22.7701 59.0163 22 60.8742 22 62.8592C22 64.8341 22.7701 66.6921 24.168 68.09L40.91 84.832C42.3079 86.2299 44.1659 87 46.1509 87C48.1258 87 49.9838 86.2299 51.3816 84.832L79.65 56.5636C81.8105 54.4031 83 51.531 83 48.476V32.3541C83 28.8518 80.1483 26 76.6459 26ZM80.4584 48.476C80.4584 50.8525 79.5332 53.0866 77.8557 54.7641L49.5847 83.035C47.7572 84.8625 44.5522 84.8751 42.7095 83.035L25.965 66.2905C25.0475 65.3755 24.5416 64.1555 24.5416 62.8491C24.5416 61.5529 25.0474 60.3329 25.965 59.4154L54.2334 31.1469C55.916 29.4669 58.1475 28.5416 60.524 28.5416H76.6458C78.7477 28.5416 80.4583 30.2521 80.4583 32.3541V48.476H80.4584Z" fill="#F9C836" stroke="#F9C836" stroke-width="3"/>
</svg>
