<svg width="106" height="106" viewBox="0 0 106 106" fill="none" xmlns="http://www.w3.org/2000/svg">
<circle cx="53" cy="53" r="53" fill="#623C21"/>
<path d="M30.9372 44.3457H24.5444V47.6073H30.9372V44.3457Z" fill="#F9C836" stroke="#F9C836"/>
<path d="M30.9372 57.3926H24.5444V60.6542H30.9372V57.3926Z" fill="#F9C836" stroke="#F9C836"/>
<path d="M27.4032 50.8691H18V54.1308H27.4032V50.8691Z" fill="#F9C836" stroke="#F9C836"/>
<path d="M64.5347 31C52.6796 31 43.0347 40.6449 43.0347 52.5C43.0347 64.3551 52.6795 74 64.5347 74C76.3899 74 86.0348 64.3551 86.0348 52.5C86.0348 40.6449 76.3899 31 64.5347 31ZM64.5347 70.7384C54.478 70.7384 46.2963 62.5566 46.2963 52.5C46.2963 42.4434 54.478 34.2616 64.5347 34.2616C74.5914 34.2616 82.7732 42.4434 82.7732 52.5C82.7732 62.5566 74.5914 70.7384 64.5347 70.7384Z" fill="#F9C836" stroke="#F9C836"/>
<path d="M65.5878 53.311V42.7764H62.3262V55.0352L70.7311 60.763L72.568 58.0677L65.5878 53.311Z" fill="#F9C836" stroke="#F9C836"/>
</svg>
