<svg width="106" height="106" viewBox="0 0 106 106" fill="none" xmlns="http://www.w3.org/2000/svg">
<circle cx="53" cy="53" r="53" fill="#623C21"/>
<path d="M29.489 54.385C24.4686 49.321 18.707 46.4438 13 43C18.4891 54.1126 21.8712 58.2793 28.7806 63.169C30.6733 65.672 33.2707 66.849 36.3186 67.234C43.1155 68.095 49.7997 69.9986 55.9608 68.9015C48.728 65.5266 39.915 64.9781 31.4689 62.9183C31.3926 59.9976 32.8203 57.7453 29.489 54.385Z" fill="#F9C836"/>
<path d="M85.1278 55.7395C84.6083 52.1358 82.0254 54.617 80.4343 54.1484C78.36 53.7996 76.2748 53.4654 73.3613 52.9932C76.253 56.7022 77.7025 60.4403 82.4214 61.1015C84.4412 61.3812 88.1648 62.1041 87.6925 64.2183C86.4864 69.6493 90.7731 67.4261 92.6112 68.7121C93.0944 56.2626 94.6093 57.2144 85.1278 55.7395Z" fill="#F9C836"/>
<path d="M54.9287 53.9571C53.501 60.1582 53.5083 60.1691 58.2563 61.3352C58.507 61.4006 58.605 61.9818 58.8484 62.2579C59.535 62.9881 60.5631 63.3732 61.3478 62.8718C62.5429 62.0908 61.7764 60.8811 61.3914 59.9366C60.9336 58.785 59.1681 57.9095 60.3706 56.4455C60.861 55.8497 62.997 56.8088 62.4412 54.9779C61.969 53.4158 60.2616 53.8445 59.0519 54.0733C58.0783 54.2622 57.1047 55.2104 56.7342 53.4085C59.1645 51.6358 63.106 54.7381 65.2966 50.248C61.6384 51.8719 58.0928 49.5978 55.0014 51.8465C54.9868 52.5548 55.0813 53.2814 54.9287 53.9571Z" fill="#F9C836"/>
<path d="M54.9947 51.7619C54.8857 51.7365 54.8058 51.7547 54.7077 51.7365C54.0611 51.0318 53.3999 50.3742 52.9821 49.5242C52.9422 49.4624 52.9022 49.4079 52.8623 49.3316C52.7388 49.0156 52.637 48.6705 52.5898 48.2927C52.4372 46.9522 52.8005 45.2593 50.5155 45.0704C48.532 44.9069 47.9726 46.2256 47.4386 47.577C45.7675 51.7765 41.8841 51.1262 39.0724 50.4323C35.6176 49.575 36.0536 51.0063 36.6094 53.0261C36.9908 54.4175 37.5503 55.8161 38.3458 57.0076C40.5146 60.2807 44.4307 59.2962 47.4967 60.2807C50.4211 61.218 49.4693 57.4799 50.6427 56.2229C51.6671 55.1404 51.5327 52.83 52.8368 51.9908C53.2691 51.7111 53.8613 51.6021 54.7186 51.751C54.7731 51.8055 54.824 51.86 54.8821 51.9254C54.9257 51.8927 54.9584 51.8854 55.002 51.8491C54.9947 51.8201 54.9947 51.791 54.9947 51.7619Z" fill="#F9C836"/>
<path d="M69.3694 55.9722C70.6227 53.6981 72.7987 51.5838 70.5754 48.4561C67.6365 50.7047 68.0725 53.2658 69.3694 55.9722Z" fill="#F9C836"/>
</svg>
