<?xml version="1.0" standalone="no"?>
<!DOCTYPE svg PUBLIC "-//W3C//DTD SVG 20010904//EN"
 "http://www.w3.org/TR/2001/REC-SVG-20010904/DTD/svg10.dtd">
<svg version="1.0" xmlns="http://www.w3.org/2000/svg"
 width="179.000000pt" height="179.000000pt" viewBox="0 0 179.000000 179.000000"
 preserveAspectRatio="xMidYMid meet">
<metadata>
Created by potrace 1.14, written by Peter Selinger 2001-2017
</metadata>
<g transform="translate(0.000000,179.000000) scale(0.100000,-0.100000)"
fill="#000000" stroke="none">
<path d="M117 1770 c-49 -24 -94 -75 -107 -120 -13 -48 -13 -1462 0 -1511 12
-44 69 -104 117 -124 30 -13 141 -15 763 -15 517 0 737 3 761 11 53 18 94 54
117 101 20 42 21 56 21 771 1 542 -2 739 -11 769 -15 51 -77 114 -125 128 -25
6 -287 10 -768 9 -696 0 -732 -1 -768 -19z"/>
</g>
</svg>
