<svg width="23" height="24" viewBox="0 0 23 24" fill="none" xmlns="http://www.w3.org/2000/svg">
<path d="M14.0679 9.36847L10.6104 12.6342L8.95101 10.9271C8.76705 10.7377 8.46414 10.7334 8.27493 10.9173C8.08554 11.1015 8.08123 11.4042 8.26519 11.5936L10.2554 13.6366C10.4403 13.8226 10.7391 13.829 10.9317 13.6509L14.7347 10.0638C14.827 9.97674 14.881 9.85647 14.8845 9.72965C14.8881 9.60282 14.8411 9.47975 14.7538 9.38758C14.5687 9.19519 14.2635 9.18676 14.0679 9.36847Z" fill="#9A5739"/>
<path d="M11.5024 4.34253C7.55087 4.34253 4.33777 7.55563 4.33777 11.5072C4.33777 15.4589 7.55087 18.672 11.5024 18.672C15.4542 18.672 18.6673 15.4589 18.6673 11.5072C18.6673 7.55563 15.4542 4.34253 11.5024 4.34253ZM11.5024 17.7129C8.07839 17.7129 5.2969 14.9265 5.2969 11.5072C5.2969 8.08783 8.07839 5.30166 11.5024 5.30166C14.9298 5.30166 17.7081 8.07996 17.7081 11.5072C17.7081 14.9344 14.9298 17.7129 11.5024 17.7129Z" fill="#9A5739"/>
<path d="M21.3623 8.8696L21.5206 6.02573C21.5317 5.83484 21.4279 5.65556 21.2568 5.57014L18.7247 4.28973L17.4443 1.75758C17.3572 1.58805 17.179 1.48483 16.9887 1.49382L14.14 1.64743L11.7661 0.0791004C11.6061 -0.0263668 11.3987 -0.0263668 11.2386 0.0791004L8.86472 1.64743L6.02104 1.48914C5.82997 1.4779 5.65088 1.58168 5.56546 1.7529L4.28486 4.28505L1.7529 5.56546C1.58318 5.65238 1.48015 5.83053 1.48914 6.02104L1.64725 8.86491L0.0791004 11.2388C-0.0263668 11.3987 -0.0263668 11.6061 0.0791004 11.7663L1.64256 14.1448L1.48427 16.9887C1.47322 17.1796 1.57681 17.3589 1.74803 17.4443L4.28018 18.7247L5.56059 21.2568C5.64751 21.4266 5.82566 21.5296 6.01617 21.5206L8.86004 21.3623L11.2339 22.9305C11.3929 23.0393 11.6024 23.0393 11.7614 22.9305L14.1353 21.3623L16.9791 21.5206C17.17 21.5317 17.3491 21.4279 17.4347 21.2568L18.7151 18.7247L21.2473 17.4443C21.4168 17.3572 21.52 17.1792 21.511 16.9887L21.3528 14.1448L22.9209 11.771C23.0264 11.611 23.0264 11.4034 22.9209 11.2435L21.3623 8.8696ZM20.4702 13.7516C20.4118 13.8374 20.3846 13.9406 20.3936 14.0442L20.5422 16.7345L18.1492 17.943C18.058 17.9887 17.984 18.0629 17.9383 18.1541L16.7296 20.547L14.0394 20.3985C13.9363 20.3947 13.8346 20.4213 13.7468 20.4751L11.5023 21.9571L9.25812 20.4751C9.18019 20.4225 9.0884 20.394 8.99436 20.3936H8.97038L6.27993 20.5424L5.07146 18.1492C5.02576 18.058 4.95176 17.984 4.86034 17.9383L2.46251 16.7345L2.61125 14.0442C2.615 13.9412 2.58821 13.8395 2.53444 13.7516L1.05266 11.5072L2.53444 9.2628C2.59308 9.17719 2.62024 9.07379 2.61125 8.97038L2.46251 6.27994L4.85566 5.07147C4.94689 5.02576 5.02088 4.95176 5.06659 4.86053L6.27506 2.46738L8.96551 2.61612C9.06835 2.61968 9.17007 2.59308 9.25812 2.53932L11.5023 1.05753L13.7468 2.53932C13.8325 2.59795 13.936 2.62511 14.0394 2.61612L16.7296 2.46738L17.9383 4.86053C17.984 4.95176 18.058 5.02576 18.1492 5.07147L20.5422 6.27994L20.3936 8.97038C20.3899 9.07322 20.4167 9.17494 20.4702 9.2628L21.9522 11.5072L20.4702 13.7516Z" fill="#9A5739"/>
</svg>
