<svg width="108" height="18" viewBox="0 0 108 18" fill="none" xmlns="http://www.w3.org/2000/svg">
<path fill-rule="evenodd" clip-rule="evenodd" d="M81.0395 14.0363C82.8597 15.5854 85.5946 14.7827 86.5823 12.4729C87.6135 10.0619 87.2839 6.82101 84.7047 5.55958C82.9871 4.71923 78.4005 5.27588 78.3345 5.87916L78.3341 17.4368H81.0395V14.0363ZM81.0406 11.7778C81.7457 12.7246 83.4401 12.5044 84.0333 11.6519C84.6904 10.7072 84.8037 8.803 83.8981 7.9917C83.2442 7.40599 81.9889 7.29015 81.0399 7.76179L81.0406 11.7778Z" fill="#E31D53"/>
<path fill-rule="evenodd" clip-rule="evenodd" d="M23.2644 14.6282C28.71 15.263 30.9438 14.6393 31.6966 11.9238C32.5703 8.77294 30.8057 3.81726 25.7944 6.10375V3.0282L23.2644 3.02856V14.6282ZM25.7944 8.21593V12.2588C25.925 12.7172 29.3929 12.9973 29.4844 10.2377C29.54 8.56384 27.7301 6.89353 25.7944 8.21593Z" fill="#E31D53"/>
<path fill-rule="evenodd" clip-rule="evenodd" d="M49.2382 10.1189L52.6477 5.59219L49.8393 5.59255L47.1809 9.27532C47.1339 9.34024 47.0543 9.36643 46.9779 9.34204C46.9018 9.31729 46.8523 9.2495 46.8523 9.16952L46.8513 3.02953L44.21 3.02881L44.2086 14.915L46.8513 14.9153L46.8509 11.4051C46.8509 11.3255 46.8997 11.258 46.975 11.2329C47.0507 11.2078 47.1299 11.2326 47.1777 11.2964L49.8827 14.9153H52.8033L49.24 10.3395C49.189 10.2738 49.1883 10.1853 49.2382 10.1189Z" fill="#E31D53"/>
<path fill-rule="evenodd" clip-rule="evenodd" d="M58.8442 10.2165L58.837 11.9822C58.8331 12.3797 57.8597 13.0188 56.7518 12.6992C55.1848 12.2473 55.6485 9.75207 58.8442 10.2165ZM61.8176 14.6314L62.1231 13.0514C61.6163 12.8907 61.1888 12.6504 61.2075 12.03C61.305 8.77829 61.7925 7.12735 60.0917 5.96815C59.0895 5.28525 57.3852 5.10484 54.0768 5.83221L54.6141 7.63845C55.4792 7.53803 58.9791 6.64782 58.9493 8.5344C57.3124 8.48705 55.5732 8.54516 54.1687 9.58278C52.5507 10.7782 52.8057 13.3445 54.3139 14.4029C55.3343 15.1195 57.4081 15.1927 58.9188 13.8068C59.7395 14.8387 61.0669 14.9868 61.8176 14.6314Z" fill="#E31D53"/>
<path fill-rule="evenodd" clip-rule="evenodd" d="M42.6515 13.0048C42.0228 12.8904 41.8463 12.7 41.8467 12.0443L41.8481 5.59265L39.3324 5.59301V11.5228C39.3324 12.2728 38.5588 12.6838 37.8525 12.6942C36.9537 12.7079 36.0743 12.111 36.0707 11.1455L36.07 5.59265H33.5826L33.583 11.8765C33.7093 14.2049 36.0298 16.0445 39.4687 13.956C40.3062 14.8907 41.3646 14.8405 42.3513 14.6945L42.6515 13.0048Z" fill="#E31D53"/>
<path d="M66.2586 3.00623H63.6619V14.8838H66.2586V3.00623Z" fill="#E31D53"/>
<path fill-rule="evenodd" clip-rule="evenodd" d="M73.5614 10.2165L73.5546 11.9822C73.5503 12.3797 72.5768 13.0188 71.4689 12.6992C69.9019 12.2473 70.3657 9.75207 73.5614 10.2165ZM76.5351 14.6314L76.8403 13.0514C76.3335 12.8907 75.9063 12.6504 75.9246 12.03C76.0222 8.77829 76.5096 7.12735 74.8088 5.96815C73.8071 5.28525 72.1023 5.10484 68.7944 5.83221L69.3313 7.63845C70.1964 7.53803 73.6962 6.64782 73.6665 8.5344C72.0299 8.48705 70.2904 8.54516 68.8858 9.58278C67.2679 10.7782 67.5233 13.3445 69.0311 14.4029C70.0518 15.1195 72.1253 15.1927 73.636 13.8068C74.4566 14.8387 75.784 14.9868 76.5351 14.6314Z" fill="#E31D53"/>
<path fill-rule="evenodd" clip-rule="evenodd" d="M93.8069 10.2165L93.8001 11.9822C93.7958 12.3797 92.8224 13.0188 91.7145 12.6992C90.1475 12.2473 90.6112 9.75207 93.8069 10.2165ZM96.7806 14.6314L97.0862 13.0514C96.5791 12.8907 96.1519 12.6504 96.1702 12.03C96.2678 8.77829 96.7552 7.12735 95.0544 5.96815C94.0526 5.28525 92.3479 5.10484 89.0399 5.83221L89.5768 7.63845C90.4419 7.53803 93.9418 6.64782 93.912 8.5344C92.2755 8.48705 90.5359 8.54516 89.1314 9.58278C87.5134 10.7782 87.7688 13.3445 89.277 14.4029C90.2974 15.1195 92.3709 15.1927 93.8816 13.8068C94.7022 14.8387 96.0296 14.9868 96.7806 14.6314Z" fill="#E31D53"/>
<path fill-rule="evenodd" clip-rule="evenodd" d="M103.624 10.1189L107.034 5.59219L104.225 5.59255L101.567 9.27532C101.52 9.34024 101.44 9.36643 101.364 9.34204C101.288 9.31729 101.238 9.2495 101.238 9.16952L101.237 3.02953L98.5962 3.02881L98.5947 14.915L101.237 14.9153V11.4051C101.237 11.3255 101.286 11.258 101.361 11.2329C101.436 11.2078 101.516 11.2326 101.564 11.2964L104.269 14.9153H107.189L103.626 10.3395C103.575 10.2738 103.574 10.1853 103.624 10.1189Z" fill="#E31D53"/>
<path fill-rule="evenodd" clip-rule="evenodd" d="M1.4032 1.18601L4.10574 0.291503C4.47588 0.168839 4.84172 0.204706 5.18102 0.397309C5.52032 0.589554 5.73874 0.885094 5.82375 1.266L7.70889 9.7305C7.85666 10.394 7.48724 11.0554 6.84487 11.2778L5.74341 11.6594C5.08561 11.8872 4.36757 11.5733 4.08817 10.936L0.602297 2.98436C0.446278 2.62857 0.447354 2.26309 0.605525 1.90837C0.763338 1.55329 1.03449 1.30796 1.4032 1.18601Z" fill="#E31D53"/>
<path d="M7.42478 17.3713C8.66414 17.3624 9.66161 16.3504 9.6527 15.1111C9.64378 13.8717 8.63186 12.8742 7.3925 12.8832C6.15314 12.8921 5.15566 13.904 5.16458 15.1433C5.17349 16.3827 6.18542 17.3802 7.42478 17.3713Z" fill="#E31D53"/>
<path fill-rule="evenodd" clip-rule="evenodd" d="M12.0473 11.4329C12.0115 11.4533 11.6862 11.5911 11.3429 11.7266C10.7393 11.9655 10.4642 12.6692 10.7027 13.2728L11.1869 14.4991C11.3124 14.8169 11.5355 15.0454 11.8501 15.1788C12.165 15.3126 12.4562 15.2695 12.7769 15.1512C15.4353 14.1691 17.1476 11.8353 16.9047 8.93837C16.6551 5.95965 14.445 3.77179 11.7604 3.3353C10.7963 3.17856 10.0076 3.24276 9.09911 3.41026C8.89862 3.4472 8.58012 3.53938 8.46858 3.7101C8.35739 3.88047 8.3269 4.0702 8.37963 4.26675L9.01195 6.63107C9.09983 6.95961 9.43159 7.17409 9.76156 7.09232C10.2719 6.96535 10.7242 6.9614 11.0549 6.98579C12.302 7.07761 13.1086 8.11344 13.2008 9.16325C13.2933 10.2131 12.9332 10.8845 12.0473 11.4329Z" fill="#E31D53"/>
</svg>
