<svg width="24" height="26" viewBox="0 0 24 26" fill="none" xmlns="http://www.w3.org/2000/svg">
<path fill-rule="evenodd" clip-rule="evenodd" d="M1.39048 1.42607L5.48794 0.105261C6.04913 -0.0758596 6.60379 -0.0229002 7.11822 0.261492C7.63265 0.545354 7.96381 0.981739 8.09269 1.54417L10.9509 14.0426C11.1749 15.0223 10.6148 15.9989 9.64086 16.3272L7.97088 16.8907C6.97357 17.227 5.8849 16.7636 5.46129 15.8225L0.176196 4.08145C-0.0603523 3.55609 -0.0587209 3.01644 0.18109 2.49267C0.420358 1.96837 0.831463 1.60613 1.39048 1.42607Z" fill="white"/>
<path d="M10.1279 25.0353C11.937 25.0223 13.393 23.5452 13.38 21.7361C13.367 19.927 11.8899 18.471 10.0808 18.484C8.27173 18.497 6.81572 19.9741 6.82874 21.7832C6.84175 23.5923 8.31886 25.0483 10.1279 25.0353Z" fill="white"/>
<path fill-rule="evenodd" clip-rule="evenodd" d="M16.5997 16.2648C16.5453 16.2954 16.052 16.5017 15.5316 16.7048C14.6162 17.0627 14.1991 18.1168 14.5608 19.0211L15.295 20.8581C15.4853 21.3342 15.8236 21.6764 16.3006 21.8763C16.7781 22.0767 17.2197 22.0122 17.7059 21.8349C21.7371 20.3638 24.3335 16.8676 23.9653 12.5279C23.5868 8.06559 20.2355 4.78807 16.1646 4.13418C14.7027 3.89938 13.5067 3.99556 12.1291 4.24647C11.8251 4.30182 11.3421 4.4399 11.173 4.69566C11.0044 4.95087 10.9582 5.2351 11.0381 5.52954L11.997 9.07141C12.1302 9.56358 12.6333 9.88488 13.1336 9.76238C13.9076 9.57218 14.5934 9.56627 15.0948 9.6028C16.9859 9.74035 18.209 11.2921 18.3488 12.8647C18.4891 14.4374 17.9431 15.4432 16.5997 16.2648Z" fill="white"/>
</svg>
