<svg width="22" height="25" viewBox="0 0 22 25" fill="none" xmlns="http://www.w3.org/2000/svg">
<path d="M15.3521 2H6.05615C3.48916 2 1.4082 4.38379 1.4082 7.32434V17.973C1.4082 20.9136 3.48916 23.2974 6.05615 23.2974H15.3521C17.919 23.2974 20 20.9136 20 17.973V7.32434C20 4.38379 17.919 2 15.3521 2Z" stroke="white" stroke-width="2.25" stroke-linecap="round" stroke-linejoin="round"/>
<path d="M14.4224 11.9787C14.5371 12.865 14.405 13.7701 14.0447 14.5654C13.6845 15.3607 13.1146 16.0057 12.416 16.4085C11.7174 16.8113 10.9257 16.9515 10.1535 16.8092C9.38133 16.6668 8.668 16.2492 8.11496 15.6156C7.56193 14.9821 7.19736 14.1649 7.07311 13.2803C6.94885 12.3957 7.07125 11.4887 7.42287 10.6884C7.7745 9.88805 8.33746 9.23512 9.03167 8.82245C9.72589 8.40979 10.516 8.2584 11.2897 8.38983C12.0788 8.52389 12.8094 8.94516 13.3735 9.59141C13.9376 10.2377 14.3054 11.0746 14.4224 11.9787Z" stroke="white" stroke-width="2.25" stroke-linecap="round" stroke-linejoin="round"/>
<path d="M15.8169 6.79297H15.8284" stroke="white" stroke-width="2.25" stroke-linecap="round" stroke-linejoin="round"/>
</svg>
