<svg width="22" height="25" viewBox="0 0 22 25" fill="none" xmlns="http://www.w3.org/2000/svg">
<path d="M15.3521 2H6.05615C3.48916 2 1.4082 4.38379 1.4082 7.32434V17.973C1.4082 20.9136 3.48916 23.2974 6.05615 23.2974H15.3521C17.919 23.2974 20 20.9136 20 17.973V7.32434C20 4.38379 17.919 2 15.3521 2Z" stroke="#A5D1B0" stroke-width="2.25" stroke-linecap="round" stroke-linejoin="round"/>
<path d="M14.4224 11.9782C14.5371 12.8645 14.405 13.7697 14.0447 14.5649C13.6845 15.3602 13.1146 16.0052 12.416 16.408C11.7174 16.8108 10.9257 16.951 10.1535 16.8087C9.38133 16.6663 8.668 16.2487 8.11496 15.6151C7.56193 14.9816 7.19736 14.1644 7.07311 13.2798C6.94885 12.3952 7.07125 11.4882 7.42287 10.6879C7.7745 9.88756 8.33746 9.23463 9.03167 8.82196C9.72589 8.4093 10.516 8.25792 11.2897 8.38934C12.0788 8.5234 12.8094 8.94467 13.3735 9.59092C13.9376 10.2372 14.3054 11.0741 14.4224 11.9782Z" stroke="#A5D1B0" stroke-width="2.25" stroke-linecap="round" stroke-linejoin="round"/>
<path d="M15.8169 6.79248H15.8284" stroke="#A5D1B0" stroke-width="2.25" stroke-linecap="round" stroke-linejoin="round"/>
</svg>
