<svg width="19" height="21" viewBox="0 0 19 21" fill="none" xmlns="http://www.w3.org/2000/svg">
<path d="M13.1561 6.88086C14.6354 6.88086 16.054 7.55401 17.1 8.75221C18.146 9.95042 18.7336 11.5755 18.7336 13.2701V20.7241H15.0153V13.2701C15.0153 12.7052 14.8194 12.1635 14.4707 11.7641C14.1221 11.3647 13.6492 11.1403 13.1561 11.1403C12.663 11.1403 12.1901 11.3647 11.8415 11.7641C11.4928 12.1635 11.2969 12.7052 11.2969 13.2701V20.7241H7.57861V13.2701C7.57861 11.5755 8.16624 9.95042 9.21223 8.75221C10.2582 7.55401 11.6769 6.88086 13.1561 6.88086Z" fill="white"/>
<path d="M3.86038 7.94531H0.14209V20.7241H3.86038V7.94531Z" fill="white"/>
<path d="M2.00127 4.75098C3.02807 4.75098 3.86045 3.79761 3.86045 2.62158C3.86045 1.44555 3.02807 0.492188 2.00127 0.492188C0.974473 0.492188 0.14209 1.44555 0.14209 2.62158C0.14209 3.79761 0.974473 4.75098 2.00127 4.75098Z" fill="white"/>
</svg>
