<svg width="20" height="21" viewBox="0 0 20 21" fill="none" xmlns="http://www.w3.org/2000/svg">
<path d="M14.1159 6.60498C15.6763 6.60498 17.1728 7.27813 18.2761 8.47633C19.3795 9.67454 19.9993 11.2997 19.9993 12.9942V20.4482H16.077V12.9942C16.077 12.4293 15.8704 11.8876 15.5026 11.4882C15.1348 11.0888 14.636 10.8644 14.1159 10.8644C13.5958 10.8644 13.0969 11.0888 12.7291 11.4882C12.3613 11.8876 12.1547 12.4293 12.1547 12.9942V20.4482H8.23242V12.9942C8.23242 11.2997 8.85228 9.67454 9.95565 8.47633C11.059 7.27813 12.5555 6.60498 14.1159 6.60498Z" fill="#7D7D7D"/>
<path d="M4.31044 7.66992H0.388184V20.4487H4.31044V7.66992Z" fill="#7D7D7D"/>
<path d="M2.34935 4.47559C3.43247 4.47559 4.31052 3.52222 4.31052 2.34619C4.31052 1.17016 3.43247 0.216797 2.34935 0.216797C1.26623 0.216797 0.388184 1.17016 0.388184 2.34619C0.388184 3.52222 1.26623 4.47559 2.34935 4.47559Z" fill="#7D7D7D"/>
</svg>
