<svg width="19" height="21" viewBox="0 0 19 21" fill="none" xmlns="http://www.w3.org/2000/svg">
<path d="M13.1561 6.88037C14.6354 6.88037 16.054 7.55352 17.1 8.75172C18.146 9.94993 18.7336 11.575 18.7336 13.2696V20.7236H15.0153V13.2696C15.0153 12.7047 14.8194 12.163 14.4707 11.7636C14.1221 11.3642 13.6492 11.1398 13.1561 11.1398C12.663 11.1398 12.1901 11.3642 11.8415 11.7636C11.4928 12.163 11.2969 12.7047 11.2969 13.2696V20.7236H7.57861V13.2696C7.57861 11.575 8.16624 9.94993 9.21223 8.75172C10.2582 7.55352 11.6769 6.88037 13.1561 6.88037Z" fill="#A5D1B0"/>
<path d="M3.86038 7.94531H0.14209V20.7241H3.86038V7.94531Z" fill="#A5D1B0"/>
<path d="M2.00127 4.75098C3.02807 4.75098 3.86045 3.79761 3.86045 2.62158C3.86045 1.44555 3.02807 0.492188 2.00127 0.492188C0.974473 0.492188 0.14209 1.44555 0.14209 2.62158C0.14209 3.79761 0.974473 4.75098 2.00127 4.75098Z" fill="#A5D1B0"/>
</svg>
