<svg width="24" height="28" viewBox="0 0 24 28" fill="none" xmlns="http://www.w3.org/2000/svg">
<path d="M21.8182 16.1231H2.18182C0.978545 16.1231 0 15.1445 0 13.9413V3.03216C0 1.82889 0.978545 0.850342 2.18182 0.850342H21.8182C23.0215 0.850342 24 1.82889 24 3.03216V13.9413C24 15.1445 23.0215 16.1231 21.8182 16.1231ZM2.18182 1.94125C1.57964 1.94125 1.09091 2.43107 1.09091 3.03216V13.9413C1.09091 14.5423 1.57964 15.0322 2.18182 15.0322H21.8182C22.4204 15.0322 22.9091 14.5423 22.9091 13.9413V3.03216C22.9091 2.43107 22.4204 1.94125 21.8182 1.94125H2.18182Z" fill="#9A5739"/>
<path d="M12.0001 27.0323C11.8605 27.0323 11.7208 26.9788 11.6139 26.873L8.34119 23.6003C8.12846 23.3875 8.12846 23.0417 8.34119 22.829C8.55391 22.6163 8.89973 22.6163 9.11246 22.829L12.0001 25.7155L14.8866 22.829C15.0994 22.6163 15.4452 22.6163 15.6579 22.829C15.8706 23.0417 15.8706 23.3875 15.6579 23.6003L12.3852 26.873C12.2794 26.9788 12.1397 27.0323 12.0001 27.0323Z" fill="#9A5739"/>
<path d="M11.9999 27.0322C11.6988 27.0322 11.4545 26.7878 11.4545 26.4867V17.7594C11.4545 17.4584 11.6988 17.214 11.9999 17.214C12.301 17.214 12.5454 17.4584 12.5454 17.7594V26.4867C12.5454 26.7878 12.301 27.0322 11.9999 27.0322Z" fill="#9A5739"/>
<path d="M12 12.8503C9.59344 12.8503 7.63635 10.8932 7.63635 8.48668C7.63635 6.08014 9.59344 4.12305 12 4.12305C14.4065 4.12305 16.3636 6.08014 16.3636 8.48668C16.3636 10.8932 14.4065 12.8503 12 12.8503ZM12 5.21396C10.1956 5.21396 8.72726 6.68232 8.72726 8.48668C8.72726 10.291 10.1956 11.7594 12 11.7594C13.8044 11.7594 15.2727 10.291 15.2727 8.48668C15.2727 6.68232 13.8044 5.21396 12 5.21396Z" fill="#9A5739"/>
<path d="M4.90907 9.03207H3.81816C3.51707 9.03207 3.27271 8.78771 3.27271 8.48662C3.27271 8.18553 3.51707 7.94116 3.81816 7.94116H4.90907C5.21016 7.94116 5.45452 8.18553 5.45452 8.48662C5.45452 8.78771 5.21016 9.03207 4.90907 9.03207Z" fill="#9A5739"/>
<path d="M20.1819 9.03207H19.091C18.7899 9.03207 18.5455 8.78771 18.5455 8.48662C18.5455 8.18553 18.7899 7.94116 19.091 7.94116H20.1819C20.483 7.94116 20.7274 8.18553 20.7274 8.48662C20.7274 8.78771 20.483 9.03207 20.1819 9.03207Z" fill="#9A5739"/>
</svg>
