<svg width="27" height="19" viewBox="0 0 27 19" fill="none" xmlns="http://www.w3.org/2000/svg">
<path d="M25.9516 1.51619C25.2469 1.11963 24.4076 1.29202 23.9603 1.73134C21.075 4.56624 21.0921 4.60611 20.7474 4.73388C20.319 4.89282 19.8762 4.80512 19.5241 4.52173C14.2196 0.0648551 14.5594 0.347928 14.5123 0.315234C13.7862 -0.188002 12.8724 -0.0425633 12.3837 0.426607C7.1779 5.42121 7.47237 5.16571 7.26001 5.27962C6.66043 5.60098 6.05816 5.38867 5.6239 4.88807C2.90934 1.75887 3.10972 1.98435 3.04792 1.93088C1.71598 0.778128 -0.198935 2.00724 0.0167451 3.90285C0.606306 9.82688 1.00576 13.8408 1.00629 13.8461C1.19734 15.7658 1.13549 15.1674 1.14978 15.2867C1.3316 16.843 2.46991 18.0867 3.91686 18.0867H23.0605C24.5511 18.0867 25.682 16.7608 25.8291 15.2734L26.9837 3.70631C27.0883 2.78743 26.6838 1.9283 25.9516 1.51619ZM1.83025 3.0887C1.87228 3.0665 1.9112 3.05332 1.97912 3.10078L4.42885 5.92471C5.65148 7.33406 7.49351 7.31998 8.63735 6.21337L13.4385 1.60694C13.4913 1.57419 13.5377 1.57282 13.5901 1.60225C18.7698 5.95429 18.5131 5.73872 18.5236 5.74726C19.3075 6.38154 20.3325 6.57491 21.2974 6.21722C22.0433 5.94069 22.1424 5.73524 25.0283 2.89981C25.0892 2.86036 25.1263 2.86711 25.1755 2.8948C25.3157 2.97369 25.4493 3.20608 25.4115 3.52992C25.4101 3.54121 25.4448 3.1948 24.4689 12.9716H2.50904C1.58103 3.64673 1.59005 3.73642 1.58889 3.72672C1.5477 3.3742 1.7107 3.15203 1.83025 3.0887ZM23.0605 16.5047H3.91681C3.33004 16.5047 2.81711 15.9054 2.72176 15.1094L2.66645 14.5536H24.311L24.2555 15.1092C24.1603 15.9053 23.6474 16.5047 23.0605 16.5047Z" fill="#9A5739"/>
</svg>
