<svg width="94" height="94" viewBox="0 0 94 94" fill="none" xmlns="http://www.w3.org/2000/svg">
<g filter="url(#filter0_d)">
<rect x="24" y="24" width="46" height="46" rx="5" fill="white"/>
</g>
<path d="M33.5151 46.2929C33.1246 46.6834 33.1246 47.3166 33.5151 47.7071L39.8791 54.0711C40.2696 54.4616 40.9028 54.4616 41.2933 54.0711C41.6838 53.6805 41.6838 53.0474 41.2933 52.6569L35.6364 47L41.2933 41.3431C41.6838 40.9526 41.6838 40.3195 41.2933 39.9289C40.9028 39.5384 40.2696 39.5384 39.8791 39.9289L33.5151 46.2929ZM60.6296 46L34.2222 46L34.2222 48L60.6296 48L60.6296 46Z" fill="#16794B"/>
<defs>
<filter id="filter0_d" x="0" y="0" width="94" height="94" filterUnits="userSpaceOnUse" color-interpolation-filters="sRGB">
<feFlood flood-opacity="0" result="BackgroundImageFix"/>
<feColorMatrix in="SourceAlpha" type="matrix" values="0 0 0 0 0 0 0 0 0 0 0 0 0 0 0 0 0 0 127 0"/>
<feOffset/>
<feGaussianBlur stdDeviation="12"/>
<feColorMatrix type="matrix" values="0 0 0 0 0.0489583 0 0 0 0 0.391667 0 0 0 0 0.234301 0 0 0 0.2 0"/>
<feBlend mode="normal" in2="BackgroundImageFix" result="effect1_dropShadow"/>
<feBlend mode="normal" in="SourceGraphic" in2="effect1_dropShadow" result="shape"/>
</filter>
</defs>
</svg>
