<svg width="89" height="94" viewBox="0 0 89 94" fill="none" xmlns="http://www.w3.org/2000/svg">
<g filter="url(#filter0_d)">
<rect x="70" y="70" width="46" height="46" rx="5" transform="rotate(-180 70 70)" fill="white"/>
</g>
<path d="M60.4849 47.7071C60.8754 47.3166 60.8754 46.6834 60.4849 46.2929L54.1209 39.9289C53.7304 39.5384 53.0972 39.5384 52.7067 39.9289C52.3162 40.3195 52.3162 40.9526 52.7067 41.3431L58.3636 47L52.7067 52.6569C52.3162 53.0474 52.3162 53.6805 52.7067 54.0711C53.0972 54.4616 53.7304 54.4616 54.1209 54.0711L60.4849 47.7071ZM33.3704 48H59.7778V46H33.3704V48Z" fill="#16794B"/>
<defs>
<filter id="filter0_d" x="0" y="0" width="94" height="94" filterUnits="userSpaceOnUse" color-interpolation-filters="sRGB">
<feFlood flood-opacity="0" result="BackgroundImageFix"/>
<feColorMatrix in="SourceAlpha" type="matrix" values="0 0 0 0 0 0 0 0 0 0 0 0 0 0 0 0 0 0 127 0"/>
<feOffset/>
<feGaussianBlur stdDeviation="12"/>
<feColorMatrix type="matrix" values="0 0 0 0 0.0489583 0 0 0 0 0.391667 0 0 0 0 0.234301 0 0 0 0.2 0"/>
<feBlend mode="normal" in2="BackgroundImageFix" result="effect1_dropShadow"/>
<feBlend mode="normal" in="SourceGraphic" in2="effect1_dropShadow" result="shape"/>
</filter>
</defs>
</svg>
