<svg width="69" height="23" viewBox="0 0 69 23" fill="none" xmlns="http://www.w3.org/2000/svg">
<path d="M18.8909 6.63838H14.3799C13.8729 2.11866 11.7042 0.615173 9.97448 0.697518C8.0292 0.794667 6.0631 2.86439 5.98492 6.63838H1.46752C1.11686 6.63838 0.83374 6.92149 0.83374 7.27215L1.67199 20.0032C1.67199 20.3534 2.61202 21.9605 4.09053 21.9504H16.34C18.4856 21.6164 18.7558 19.8191 18.7558 19.4684L19.5246 7.27215C19.5246 6.92149 19.2415 6.63838 18.8909 6.63838ZM10.0272 1.75135C11.2837 1.69213 12.8741 2.93841 13.3155 6.63838H7.0406C7.11277 3.55692 8.6144 1.82305 10.0272 1.75135ZM11.3026 19.2552C9.8394 19.536 7.9575 19.0484 6.93327 17.9478C6.47066 17.4519 7.21593 16.702 7.68085 17.2026C8.36922 17.9437 9.59653 18.2902 10.5976 18.267C11.873 18.2393 13.0092 17.0777 12.2848 15.781C11.2818 13.986 8.8087 14.4884 7.53698 13.0779C6.5086 11.9394 6.99665 10.1487 8.20453 9.35437C9.46329 8.52629 11.6366 8.55821 12.6715 9.74527C13.117 10.2541 12.3713 11.004 11.9239 10.4905C11.0875 9.53201 9.11264 9.66293 8.35858 10.6492C7.28578 12.0579 8.89104 12.8161 10.0124 13.1561C11.5543 13.6229 13.265 14.4759 13.5458 16.2436C13.7697 17.667 12.6673 18.9915 11.3026 19.2552Z" fill="#EE4E2C"/>
<path d="M49.7687 12.8981C48.7792 12.8981 47.8887 13.3191 47.2785 13.9866V13.2122C47.2785 12.5123 46.1571 12.5099 46.1571 13.2122V22.3728C46.1571 23.0755 47.2785 23.0774 47.2785 22.3728V18.2944C47.891 18.9615 48.7792 19.3807 49.7687 19.3807C51.6058 19.3807 53.1 17.9281 53.1 16.1396C53.1 14.353 51.6058 12.8981 49.7687 12.8981ZM49.7687 18.2093C48.5932 18.2093 47.6398 17.2799 47.6398 16.1396C47.6398 15.1121 48.4137 14.2549 49.4278 14.0958C49.4324 14.0958 49.4389 14.0935 49.4458 14.0935C49.5513 14.0782 49.6586 14.0694 49.7687 14.0694C50.6371 14.0694 51.386 14.5774 51.7159 15.306C51.7159 15.3083 51.7182 15.3124 51.7182 15.3148C51.8324 15.5678 51.8954 15.8472 51.8954 16.1396C51.8954 17.2799 50.9419 18.2093 49.7687 18.2093ZM41.4954 19.3811C39.6574 19.3811 38.1618 17.9271 38.1618 16.1396C38.1618 14.3525 39.6574 12.8985 41.4954 12.8985C43.3338 12.8985 44.829 14.3525 44.829 16.1396C44.829 17.9271 43.3338 19.3811 41.4954 19.3811ZM41.4954 14.0699C40.3217 14.0699 39.3669 14.9988 39.3669 16.1396C39.3669 17.2809 40.3217 18.2093 41.4954 18.2093C42.669 18.2093 43.6243 17.2809 43.6243 16.1396C43.6243 14.9988 42.669 14.0699 41.4954 14.0699ZM68.2824 16.0758C68.2556 14.5857 67.4706 13.2399 65.8463 12.9416C64.4465 12.6839 62.8111 13.4014 62.2144 14.6754C61.5954 15.9994 61.8554 17.8161 63.0757 18.7385C64.397 19.7355 66.4588 19.4278 67.8134 18.6909C68.4439 18.3486 67.8786 17.4062 67.2457 17.7486C66.3867 18.2176 65.2653 18.4466 64.3026 18.1344C63.5828 17.9012 63.1789 17.297 63.0577 16.6207H67.7218C68.0197 16.6207 68.2871 16.37 68.2824 16.0758ZM63.098 15.5303C63.1072 15.4887 63.1183 15.4498 63.1294 15.4105C63.3987 14.5228 64.3165 14.0079 65.2449 13.9838C66.3126 13.9556 66.9117 14.6708 67.0982 15.5303H63.098ZM60.8168 16.085C60.79 14.5949 60.0049 13.2492 58.3807 12.9504C56.9808 12.6931 55.3455 13.4107 54.7487 14.6847C54.1298 16.0087 54.3898 17.8254 55.6101 18.7478C56.9313 19.7447 58.9932 19.4371 60.3482 18.7001C60.9783 18.3574 60.413 17.4155 59.7806 17.7578C58.921 18.2264 57.7997 18.4559 56.8374 18.1436C56.1171 17.9105 55.7133 17.3063 55.5921 16.63H60.2561C60.5545 16.63 60.8214 16.3792 60.8168 16.085ZM55.6328 15.5396C55.6416 15.498 55.6527 15.4591 55.6643 15.4198C55.9335 14.532 56.8508 14.0171 57.7793 13.9931C58.8475 13.9649 59.4461 14.6801 59.6325 15.5396H55.6328ZM36.8475 15.0344V18.8209C36.8475 19.5352 35.7257 19.5352 35.7257 18.8209V15.1084C35.6878 14.3738 35.0623 14.037 35.042 14.0282C34.2435 13.6813 32.7937 13.8404 31.93 14.9377V18.8209C31.93 19.5352 30.8086 19.5352 30.8086 18.8209V9.09448C30.8086 8.38067 31.93 8.38299 31.93 9.09448V13.4634C33.3053 12.5437 35.0544 12.646 35.876 13.2099C35.876 13.2099 36.8642 13.7507 36.8475 15.0344ZM28.9693 9.54183C27.8692 8.32655 25.5626 8.29417 24.2238 9.1426C22.9423 9.95448 22.4238 11.7892 23.5146 12.9545C24.8664 14.3983 27.4926 13.8834 28.558 15.7205C29.3287 17.0482 28.1217 18.2371 26.7668 18.2658C25.7037 18.2884 24.4 17.9336 23.6682 17.1745C23.1755 16.6642 22.384 17.4298 22.8748 17.9392C23.961 19.0656 25.9618 19.5648 27.5148 19.2761C28.9646 19.0064 30.1355 17.65 29.8968 16.1933C29.6007 14.3844 27.7831 13.511 26.145 13.0336C24.9524 12.6867 23.2481 11.9095 24.3889 10.4684C25.1897 9.45763 27.2867 9.32348 28.1759 10.3061C28.6514 10.8311 29.442 10.0637 28.9693 9.54183Z" fill="#EE4E2C"/>
</svg>
