<svg width="22" height="25" viewBox="0 0 22 25" fill="none" xmlns="http://www.w3.org/2000/svg">
<path d="M21.254 6.99099H15.9445C15.3477 1.6752 12.795 -0.0931059 10.7591 0.00374274C8.46937 0.118002 6.15519 2.55228 6.06316 6.99099H0.745984C0.333243 6.99099 0 7.32398 0 7.7364L0.986659 22.7099C0.986659 23.1217 2.09311 25.0119 3.83338 24.9999H18.2516C20.777 24.6071 21.095 22.4933 21.095 22.0809L22 7.7364C22 7.32398 21.6668 6.99099 21.254 6.99099ZM10.8211 1.24319C12.3 1.17354 14.1721 2.63933 14.6915 6.99099H7.30574C7.39069 3.36679 9.15818 1.32752 10.8211 1.24319ZM12.3224 21.8301C10.6001 22.1603 8.38497 21.5868 7.17942 20.2924C6.6349 19.7092 7.51212 18.8272 8.05935 19.4159C8.86959 20.2875 10.3142 20.6951 11.4925 20.6679C12.9937 20.6352 14.3311 19.269 13.4784 17.7439C12.2978 15.6328 9.38688 16.2237 7.89001 14.5648C6.67955 13.2258 7.25402 11.1196 8.67574 10.1854C10.1574 9.21144 12.7155 9.24898 13.9336 10.6451C14.4579 11.2436 13.5802 12.1256 13.0536 11.5217C12.0692 10.3943 9.74462 10.5483 8.85707 11.7083C7.59434 13.365 9.4838 14.2568 10.8037 14.6567C12.6186 15.2057 14.6322 16.209 14.9627 18.288C15.2262 19.9622 13.9287 21.5199 12.3224 21.8301Z" fill="white"/>
</svg>
