<svg width="27" height="33" viewBox="0 0 27 33" fill="none" xmlns="http://www.w3.org/2000/svg">
<path d="M0 0.00805664H2C7.52285 0.00805664 12 4.48521 12 10.0081V16.0081H10C4.47715 16.0081 0 11.5309 0 6.00806V0.00805664Z" fill="#157046"/>
<path d="M0 16.0161H2C7.52285 16.0161 12 20.4933 12 26.0161V32.0161H10C4.47715 32.0161 0 27.539 0 22.0161V16.0161Z" fill="#157046"/>
<path d="M25.9973 6.00001C26.0048 11.5229 21.5337 16.0061 16.0109 16.0135L14.0109 16.0162L14.0028 10.0163C13.9953 4.49341 18.4664 0.0102 23.9892 0.00272223L25.9892 1.43051e-05L25.9973 6.00001Z" fill="#157046"/>
<path d="M25.9973 22.0081C26.0048 27.5309 21.5337 32.0141 16.0109 32.0216L14.0109 32.0243L14.0028 26.0243C13.9953 20.5015 18.4664 16.0183 23.9892 16.0108L25.9892 16.0081L25.9973 22.0081Z" fill="#157046"/>
</svg>
