<svg width="27" height="31" viewBox="0 0 27 31" fill="none" xmlns="http://www.w3.org/2000/svg">
<path fill-rule="evenodd" clip-rule="evenodd" d="M13.5062 7.0394C14.9379 6.32352 16.6752 5.93369 18.2654 5.79586L20.051 5.64054C22.0083 5.47186 23.9667 5.57472 25.9251 5.57472H27V6.64957C27 11.4191 27 16.1906 27 20.9611V21.5093C27 26.4341 22.9731 30.461 18.0463 30.461H0V5.57472H1.07383C3.03531 5.57472 4.98652 5.44614 6.94697 5.59837L8.7336 5.73312C10.4297 5.86066 11.9829 6.27312 13.5062 7.0394Z" fill="#4D4C4B"/>
<path fill-rule="evenodd" clip-rule="evenodd" d="M1.07422 6.64958V18.9091V20.9611V21.5094V29.3882H8.95102H10.1894H18.0467C22.3811 29.3882 25.9255 25.8417 25.9255 21.5094V20.9611C25.9255 16.2184 25.9255 11.5919 25.9255 6.64958C24.0432 6.64958 22.054 6.6033 20.145 6.7113L18.3583 6.86558C16.6098 7.07747 14.8406 7.48581 13.5004 8.2593C12.0532 7.42307 10.4754 7.00753 8.65273 6.80387L6.8661 6.6681C4.91799 6.57758 2.9205 6.64958 1.07422 6.64958Z" fill="#5FB74E"/>
<path fill-rule="evenodd" clip-rule="evenodd" d="M3.30225 29.3882H8.95116H10.1896H18.0468C19.9672 29.3882 21.7312 28.6919 23.1002 27.5409C21.5008 23.8226 17.8041 21.2203 13.4995 21.2203C8.51299 21.2203 4.34213 24.7134 3.30225 29.3882Z" fill="#89C45F"/>
<path fill-rule="evenodd" clip-rule="evenodd" d="M13.5 29.3883L18.1389 29.3194C20.0325 29.3194 21.7574 28.6508 23.1007 27.542C24.8297 26.1123 25.9251 23.9482 25.9251 21.5095V20.9612C25.9251 16.2185 25.9251 11.592 25.9251 6.64969C24.0429 6.64969 22.0536 6.60341 20.1446 6.71141L18.3579 6.86569C16.6094 7.07758 14.8402 7.48592 13.5 8.25941V29.3883Z" fill="#4A9E4B"/>
<path fill-rule="evenodd" clip-rule="evenodd" d="M13.5 29.3882H18.0751C19.9954 29.3882 21.7306 28.6919 23.1007 27.542C21.5187 23.8648 17.7418 21.279 13.5 21.2224V29.3882Z" fill="#5FB74E"/>
<path fill-rule="evenodd" clip-rule="evenodd" d="M20.1451 5.96668C19.8036 2.61354 16.9688 -6.10352e-05 13.5283 -6.10352e-05C10.0887 -6.10352e-05 7.25604 2.59091 6.86621 5.92554L8.65284 6.06131C8.96861 3.65342 11.0206 1.79068 13.5211 1.79068C16.0205 1.79068 18.091 3.68428 18.3584 6.12097L20.1451 5.96668Z" fill="#4D4C4B"/>
<path fill-rule="evenodd" clip-rule="evenodd" d="M16.406 22.2684C15.6274 23.0923 14.8498 23.9151 14.0722 24.7401L13.4993 25.3469L12.9274 24.7401C12.1498 23.9172 11.3722 23.0923 10.5936 22.2684L10.1914 21.8405L10.4856 21.3334C11.1099 20.2565 12.2773 19.6774 13.4993 19.6774C14.7233 19.6774 15.8897 20.2565 16.514 21.3334L16.8092 21.8405L16.406 22.2684Z" fill="#4D4C4B"/>
<path fill-rule="evenodd" clip-rule="evenodd" d="M15.8322 21.7285C15.0556 22.5524 14.276 23.3753 13.4984 24.2002C12.7208 23.3753 11.9432 22.5524 11.1646 21.7285C11.6562 20.882 12.5788 20.4634 13.4984 20.4644C14.419 20.4634 15.3406 20.882 15.8322 21.7285Z" fill="#FDF8B4"/>
<path fill-rule="evenodd" clip-rule="evenodd" d="M15.8333 21.7285C15.0568 22.5524 14.2771 23.3753 13.4995 24.2002V20.4644C14.4201 20.4634 15.3417 20.882 15.8333 21.7285Z" fill="#FCD066"/>
<path fill-rule="evenodd" clip-rule="evenodd" d="M7.6683 9.74872C11.1541 9.74872 13.9817 12.5773 13.9817 16.0611C13.9817 19.5469 11.1541 22.3744 7.6683 22.3744C4.18247 22.3744 1.35596 19.5469 1.35596 16.0611C1.35596 12.5773 4.18247 9.74872 7.6683 9.74872Z" fill="#4D4C4B"/>
<path fill-rule="evenodd" clip-rule="evenodd" d="M7.6682 10.8226C10.5616 10.8226 12.9077 13.1687 12.9077 16.0611C12.9077 18.9545 10.5616 21.3006 7.6682 21.3006C4.7738 21.3006 2.42969 18.9545 2.42969 16.0611C2.42969 13.1687 4.7738 10.8226 7.6682 10.8226Z" fill="#EEEFEE"/>
<path fill-rule="evenodd" clip-rule="evenodd" d="M7.66805 10.8226C10.0554 10.8226 12.0714 12.421 12.7019 14.6057C12.0714 16.7893 10.0554 18.3877 7.66805 18.3877C5.27971 18.3877 3.2668 16.7893 2.63525 14.6057C3.2668 12.421 5.27971 10.8226 7.66805 10.8226Z" fill="#FEFEFE"/>
<path fill-rule="evenodd" clip-rule="evenodd" d="M19.3305 9.74872C22.8163 9.74872 25.6428 12.5773 25.6428 16.0611C25.6428 19.5469 22.8163 22.3744 19.3305 22.3744C15.8446 22.3744 13.0171 19.5489 13.0171 16.0611C13.0171 12.5773 15.8446 9.74872 19.3305 9.74872Z" fill="#4D4C4B"/>
<path fill-rule="evenodd" clip-rule="evenodd" d="M19.3313 10.8226C22.2236 10.8226 24.5698 13.1687 24.5698 16.0611C24.5698 18.9545 22.2236 21.3006 19.3313 21.3006C16.4379 21.3006 14.0928 18.9545 14.0928 16.0611C14.0928 13.1687 16.4379 10.8226 19.3313 10.8226Z" fill="#EEEFEE"/>
<path fill-rule="evenodd" clip-rule="evenodd" d="M19.3308 10.8226C21.7181 10.8226 23.733 12.421 24.3636 14.6057C23.733 16.7893 21.7181 18.3877 19.3308 18.3877C16.9424 18.3877 14.9274 16.7893 14.2959 14.6057C14.9274 12.421 16.9424 10.8226 19.3308 10.8226Z" fill="#FEFEFE"/>
<path fill-rule="evenodd" clip-rule="evenodd" d="M8.3259 12.8036C10.1948 12.8036 11.7099 14.3187 11.7099 16.1845C11.7099 18.0544 10.1948 19.5695 8.3259 19.5695C6.45698 19.5695 4.94189 18.0544 4.94189 16.1845C4.94189 15.5622 5.11161 14.979 5.40578 14.4771C5.64749 15.0747 6.23172 15.4943 6.91675 15.4943C7.81675 15.4943 8.54704 14.7661 8.54704 13.8661C8.54704 13.4608 8.39892 13.0906 8.15515 12.8067C8.21172 12.8036 8.26932 12.8036 8.3259 12.8036Z" fill="#4D4C4B"/>
<path fill-rule="evenodd" clip-rule="evenodd" d="M18.6715 12.8036C20.5415 12.8036 22.0555 14.3187 22.0555 16.1845C22.0555 18.0544 20.5415 19.5695 18.6705 19.5695C16.8037 19.5695 15.2886 18.0544 15.2886 16.1845C15.2886 15.5622 15.4573 14.979 15.7504 14.4771C15.9931 15.0747 16.5784 15.4943 17.2634 15.4943C18.1624 15.4943 18.8917 14.7661 18.8917 13.8661C18.8917 13.4608 18.7456 13.0906 18.5018 12.8067C18.5584 12.8036 18.6139 12.8036 18.6715 12.8036Z" fill="#4D4C4B"/>
</svg>
