<svg width="84" height="21" viewBox="0 0 84 21" fill="none" xmlns="http://www.w3.org/2000/svg">
<path fill-rule="evenodd" clip-rule="evenodd" d="M8.96353 5.39012C9.91374 4.91502 11.0667 4.6563 12.122 4.56483L13.3071 4.46175C14.6061 4.3498 15.9058 4.41807 17.2055 4.41807H17.9189V5.13141C17.9189 8.29673 17.9189 11.4634 17.9189 14.6294V14.9933C17.9189 18.2617 15.2464 20.9341 11.9766 20.9341H0V4.41807H0.712659C2.01442 4.41807 3.30936 4.33274 4.61044 4.43377L5.79616 4.52319C6.9218 4.60784 7.95256 4.88157 8.96353 5.39012Z" fill="#4D4C4B"/>
<path fill-rule="evenodd" clip-rule="evenodd" d="M0.712646 5.1313V13.2675V14.6293V14.9932V20.2221H5.94018H6.76206H11.9766C14.8532 20.2221 17.2055 17.8684 17.2055 14.9932V14.6293C17.2055 11.4817 17.2055 8.4113 17.2055 5.1313C15.9563 5.1313 14.6361 5.10058 13.3692 5.17225L12.1835 5.27465C11.023 5.41527 9.84888 5.68627 8.95942 6.1996C7.99897 5.64463 6.95182 5.36885 5.74222 5.23369L4.5565 5.14358C3.26361 5.08351 1.93796 5.1313 0.712646 5.1313Z" fill="#5FB74E"/>
<path fill-rule="evenodd" clip-rule="evenodd" d="M2.19116 20.2221H5.94013H6.76201H11.9766C13.251 20.2221 14.4217 19.76 15.3303 18.9961C14.2688 16.5284 11.8155 14.8014 8.95869 14.8014C5.64933 14.8014 2.88129 17.1196 2.19116 20.2221Z" fill="#89C45F"/>
<path fill-rule="evenodd" clip-rule="evenodd" d="M8.95947 20.2222L12.0381 20.1764C13.2948 20.1764 14.4396 19.7327 15.3311 18.9969C16.4786 18.048 17.2056 16.6118 17.2056 14.9933V14.6294C17.2056 11.4819 17.2056 8.41143 17.2056 5.13142C15.9564 5.13142 14.6362 5.1007 13.3692 5.17238L12.1835 5.27477C11.023 5.41539 9.84893 5.68639 8.95947 6.19973V20.2222Z" fill="#4A9E4B"/>
<path fill-rule="evenodd" clip-rule="evenodd" d="M8.95947 20.2221H11.9958C13.2702 20.2221 14.4218 19.7599 15.3311 18.9968C14.2812 16.5564 11.7746 14.8403 8.95947 14.8027V20.2221Z" fill="#5FB74E"/>
<path fill-rule="evenodd" clip-rule="evenodd" d="M13.3692 4.67816C13.1426 2.45281 11.2612 0.718262 8.97787 0.718262C6.69518 0.718262 4.81523 2.43779 4.55652 4.65086L5.74224 4.74096C5.9518 3.14294 7.31364 1.90671 8.97309 1.90671C10.6319 1.90671 12.006 3.16342 12.1835 4.78055L13.3692 4.67816Z" fill="#4D4C4B"/>
<path fill-rule="evenodd" clip-rule="evenodd" d="M10.8878 15.497C10.3711 16.0438 9.85503 16.5899 9.33897 17.1373L8.95875 17.5401L8.57921 17.1373C8.06314 16.5912 7.54708 16.0438 7.03033 15.497L6.76343 15.213L6.95866 14.8765C7.37301 14.1618 8.14779 13.7775 8.95875 13.7775C9.77107 13.7775 10.5452 14.1618 10.9595 14.8765L11.1554 15.213L10.8878 15.497Z" fill="#4D4C4B"/>
<path fill-rule="evenodd" clip-rule="evenodd" d="M10.5075 15.1386C9.99216 15.6854 9.47473 16.2315 8.95866 16.779C8.4426 16.2315 7.92654 15.6854 7.40979 15.1386C7.73608 14.5768 8.3484 14.299 8.95866 14.2997C9.56961 14.299 10.1812 14.5768 10.5075 15.1386Z" fill="#FDF8B4"/>
<path fill-rule="evenodd" clip-rule="evenodd" d="M10.5076 15.1386C9.99223 15.6854 9.4748 16.2315 8.95874 16.779V14.2997C9.56969 14.299 10.1813 14.5768 10.5076 15.1386Z" fill="#FCD066"/>
<path fill-rule="evenodd" clip-rule="evenodd" d="M5.08892 7.18811C7.40233 7.18811 9.27886 9.06532 9.27886 11.3774C9.27886 13.6908 7.40233 15.5673 5.08892 15.5673C2.77551 15.5673 0.899658 13.6908 0.899658 11.3774C0.899658 9.06532 2.77551 7.18811 5.08892 7.18811Z" fill="#4D4C4B"/>
<path fill-rule="evenodd" clip-rule="evenodd" d="M5.08891 7.90076C7.00913 7.90076 8.56619 9.45782 8.56619 11.3774C8.56619 13.2976 7.00913 14.8546 5.08891 14.8546C3.168 14.8546 1.6123 13.2976 1.6123 11.3774C1.6123 9.45782 3.168 7.90076 5.08891 7.90076Z" fill="#EEEFEE"/>
<path fill-rule="evenodd" clip-rule="evenodd" d="M5.08898 7.90076C6.67335 7.90076 8.01129 8.96155 8.42974 10.4114C8.01129 11.8607 6.67335 12.9215 5.08898 12.9215C3.50393 12.9215 2.16803 11.8607 1.7489 10.4114C2.16803 8.96155 3.50393 7.90076 5.08898 7.90076Z" fill="#FEFEFE"/>
<path fill-rule="evenodd" clip-rule="evenodd" d="M12.8292 7.18811C15.1426 7.18811 17.0185 9.06532 17.0185 11.3774C17.0185 13.6908 15.1426 15.5673 12.8292 15.5673C10.5158 15.5673 8.63928 13.6921 8.63928 11.3774C8.63928 9.06532 10.5158 7.18811 12.8292 7.18811Z" fill="#4D4C4B"/>
<path fill-rule="evenodd" clip-rule="evenodd" d="M12.8293 7.90076C14.7488 7.90076 16.3059 9.45782 16.3059 11.3774C16.3059 13.2976 14.7488 14.8546 12.8293 14.8546C10.909 14.8546 9.35266 13.2976 9.35266 11.3774C9.35266 9.45782 10.909 7.90076 12.8293 7.90076Z" fill="#EEEFEE"/>
<path fill-rule="evenodd" clip-rule="evenodd" d="M12.8292 7.90076C14.4136 7.90076 15.7509 8.96155 16.1693 10.4114C15.7509 11.8607 14.4136 12.9215 12.8292 12.9215C11.2442 12.9215 9.90692 11.8607 9.48779 10.4114C9.90692 8.96155 11.2442 7.90076 12.8292 7.90076Z" fill="#FEFEFE"/>
<path fill-rule="evenodd" clip-rule="evenodd" d="M5.52586 9.21545C6.76619 9.21545 7.77169 10.221 7.77169 11.4592C7.77169 12.7002 6.76619 13.7058 5.52586 13.7058C4.28553 13.7058 3.28003 12.7002 3.28003 11.4592C3.28003 11.0463 3.39266 10.6592 3.58789 10.3261C3.74831 10.7227 4.13604 11.0012 4.59067 11.0012C5.18796 11.0012 5.67263 10.5179 5.67263 9.9206C5.67263 9.65165 5.57433 9.40591 5.41255 9.2175C5.45009 9.21545 5.48832 9.21545 5.52586 9.21545Z" fill="#4D4C4B"/>
<path fill-rule="evenodd" clip-rule="evenodd" d="M12.3916 9.21545C13.6326 9.21545 14.6375 10.221 14.6375 11.4592C14.6375 12.7002 13.6326 13.7058 12.3909 13.7058C11.152 13.7058 10.1465 12.7002 10.1465 11.4592C10.1465 11.0463 10.2584 10.6592 10.453 10.3261C10.6141 10.7227 11.0025 11.0012 11.4571 11.0012C12.0537 11.0012 12.5377 10.5179 12.5377 9.9206C12.5377 9.65165 12.4408 9.40591 12.279 9.2175C12.3165 9.21545 12.3534 9.21545 12.3916 9.21545Z" fill="#4D4C4B"/>
<path fill-rule="evenodd" clip-rule="evenodd" d="M55.3387 16.5559C54.6782 17.2274 53.8873 17.5653 52.9704 17.5653C52.2298 17.5653 51.6 17.4139 50.9566 17.0399V15.4996C51.474 15.8502 52.1237 16.1855 52.7643 16.1855C54.1014 16.1855 54.8978 15.2635 54.8978 13.9575C54.8978 12.6506 54.0735 11.7016 52.7373 11.7016C52.139 11.7016 51.6558 11.917 51.2769 12.3478C50.8711 12.8146 50.6624 13.4825 50.6624 14.3649V20.4477H50.5616C49.8247 20.4477 49.2272 19.8492 49.2272 19.112V14.1368C49.2272 12.026 50.5157 10.3217 52.7301 10.3217C53.8234 10.3217 54.7115 10.6957 55.3845 11.4483C56.018 12.1513 56.332 13.0418 56.332 14.1134C56.332 15.0679 56.0009 15.8835 55.3387 16.5559ZM24.9189 17.4238C23.5162 17.4238 22.8197 16.4676 22.8197 15.1328V10.0675C22.8197 9.32936 23.4172 8.7318 24.1541 8.7318H24.254V10.4641H26.6781V11.844H24.254V15.2923C24.254 15.879 24.5158 16.044 25.0746 16.044H26.6781V17.4238H24.9189ZM33.2511 16.5433C32.5412 17.2247 31.69 17.5653 30.7002 17.5653C29.7203 17.5653 28.8727 17.2238 28.1645 16.5433C27.4528 15.8601 27.0983 14.9913 27.0983 13.944C27.0983 11.8998 28.6567 10.3217 30.7002 10.3217C31.681 10.3217 32.5304 10.666 33.243 11.351C33.9593 12.0386 34.3165 12.9048 34.3165 13.944C34.3165 14.9913 33.9611 15.8601 33.2511 16.5433ZM39.9574 12.1387C39.7468 12.492 39.584 12.7452 39.4688 12.8985C39.3419 13.0652 39.2178 13.1977 39.0936 13.2896C40.0906 13.6132 40.4622 14.3045 40.4622 15.3356V17.4238H40.3614C39.6245 17.4238 39.027 16.8254 39.027 16.0872V15.4771C39.027 14.8101 38.7292 14.3568 38.0228 14.3568H36.7199V17.4238H36.6191C35.8822 17.4238 35.2847 16.8254 35.2847 16.0872V8.67682C35.2847 7.93867 35.8822 7.34021 36.6191 7.34021H36.7199V12.9625H37.1437C37.6098 12.9625 37.9157 12.8029 38.0912 12.501L39.2969 10.4641L40.9319 10.4623L39.9574 12.1387ZM47.3628 16.5433C46.6537 17.2247 45.8016 17.5653 44.8127 17.5653C43.832 17.5653 42.9852 17.2238 42.2762 16.5433C41.5653 15.8601 41.2108 14.9913 41.2108 13.944C41.2108 11.8998 42.7693 10.3217 44.8127 10.3217C45.7935 10.3217 46.6429 10.666 47.3556 11.351C48.0709 12.0386 48.4291 12.9048 48.4291 13.944C48.4291 14.9913 48.0736 15.8601 47.3628 16.5433ZM46.3271 12.3243C45.9321 11.9098 45.4291 11.7016 44.8127 11.7016C43.4918 11.7016 42.7018 12.6659 42.7018 13.944C42.7018 15.204 43.5116 16.1855 44.8127 16.1855C46.1148 16.1855 46.9228 15.204 46.9228 13.944C46.9228 13.2743 46.7221 12.738 46.3271 12.3243ZM32.2146 12.3243C31.8196 11.9098 31.3175 11.7016 30.7002 11.7016C29.3802 11.7016 28.5902 12.6659 28.5902 13.944C28.5902 15.204 29.3991 16.1855 30.7002 16.1855C32.0013 16.1855 32.8111 15.204 32.8111 13.944C32.8111 13.2743 32.6105 12.738 32.2146 12.3243ZM70.872 16.5045C70.2133 17.212 69.3657 17.5653 68.3381 17.5653C67.2539 17.5653 66.3703 17.1904 65.6981 16.4387C65.0656 15.7267 64.7506 14.8353 64.7506 13.7736C64.7506 11.8926 66.2002 10.3217 68.106 10.3217C68.842 10.3217 69.4809 10.4767 70.1261 10.8318V12.3874C69.6078 12.0359 68.959 11.7016 68.3183 11.7016C66.9812 11.7016 66.1858 12.6227 66.1858 13.9295C66.1858 15.2184 67.028 16.1855 68.3453 16.1855C68.9419 16.1855 69.4341 15.9611 69.8264 15.5104C70.2169 15.0616 70.4203 14.4027 70.4203 13.5177V8.67682C70.4203 7.93867 71.0178 7.34021 71.7547 7.34021H71.8546V13.7448C71.8546 14.8732 71.5298 15.7961 70.872 16.5045ZM74.9229 9.6376C74.7718 9.80704 74.5558 9.88455 74.2922 9.88455C73.8 9.88455 73.4481 9.52043 73.4481 9.03103C73.4481 8.52991 73.7946 8.19193 74.2922 8.19193C74.7726 8.19193 75.138 8.54884 75.138 9.03103C75.138 9.26987 75.0678 9.47447 74.9229 9.6376ZM82.2113 13.5177C82.2113 12.9516 81.9981 12.5028 81.5671 12.163C81.1802 11.8575 80.6961 11.7016 80.1085 11.7016C78.8101 11.7016 77.9769 12.7182 77.9769 13.9719C77.9769 15.1787 78.8596 16.1855 80.095 16.1855C80.9534 16.1855 81.4132 15.6826 81.9027 15.0571V16.8623C81.6535 17.0489 81.3664 17.2535 81.0731 17.3734C80.7636 17.5023 80.3955 17.5653 79.9681 17.5653C77.904 17.5653 76.5417 15.852 76.5417 13.8728C76.5417 12.8561 76.8575 12.0161 77.4919 11.36C78.1649 10.666 79.0485 10.3217 80.1292 10.3217C82.1798 10.3217 83.6465 11.5006 83.6465 13.6312V17.4238H83.5457C82.8088 17.4238 82.2113 16.8254 82.2113 16.0872V13.5177ZM62.574 13.1112C62.3922 12.5488 62.1646 12.273 61.6418 11.981C60.3992 11.2843 59.1754 11.8764 58.6059 13.1058L62.574 13.1112ZM61.4789 17.5446C60.5629 17.7393 59.6631 17.5888 58.7867 17.0985C57.931 16.619 57.3569 15.907 57.0699 14.9669C56.4895 13.0643 57.6791 10.9445 59.592 10.4307C60.5404 10.1766 61.4501 10.2919 62.3139 10.7759C63.7491 11.579 64.2719 12.8219 64.181 14.4235L58.4007 14.4108C58.4862 15.0643 58.8902 15.5753 59.4589 15.8935C60.0347 16.2161 60.5647 16.2927 61.056 16.1404C61.6013 15.9683 62.044 15.523 62.4039 15.1075L63.5818 15.9665C63.1013 16.8281 62.4471 17.3373 61.4789 17.5446ZM73.5759 10.4641H75.0102V17.4238H74.9094C74.1734 17.4238 73.5759 16.8254 73.5759 16.0872V10.4641Z" fill="#3CAF41"/>
</svg>
