<svg width="22" height="19" viewBox="0 0 22 19" fill="none" xmlns="http://www.w3.org/2000/svg">
<path d="M22 0.0106477C21.0424 0.725889 19.9821 1.27293 18.86 1.63072C18.2577 0.897461 17.4573 0.377749 16.567 0.141869C15.6767 -0.0940105 14.7395 -0.0346765 13.8821 0.311846C13.0247 0.658369 12.2884 1.27536 11.773 2.07938C11.2575 2.88339 10.9877 3.83564 11 4.80732V5.86619C9.24263 5.91444 7.50127 5.50174 5.93101 4.66485C4.36074 3.82795 3.01032 2.59284 2 1.06952C2 1.06952 -2 10.5993 7 14.8348C4.94053 16.3151 2.48716 17.0573 0 16.9525C9 22.2469 20 16.9525 20 4.77556C19.9991 4.48061 19.9723 4.1864 19.92 3.8967C20.9406 2.83094 21.6608 1.48535 22 0.0106477Z" fill="#7D7D7D"/>
</svg>
