<svg width="21" height="20" viewBox="0 0 21 20" fill="none" xmlns="http://www.w3.org/2000/svg">
<path d="M21 0.286038C20.0859 1.00128 19.0738 1.54833 18.0027 1.90611C17.4278 1.17285 16.6638 0.65314 15.814 0.41726C14.9642 0.18138 14.0695 0.240714 13.2511 0.587237C12.4326 0.93376 11.7299 1.55075 11.2378 2.35477C10.7458 3.15878 10.4883 4.11103 10.5 5.08271V6.14158C8.82251 6.18983 7.16031 5.77713 5.66142 4.94024C4.16253 4.10334 2.87348 2.86823 1.90909 1.34491C1.90909 1.34491 -1.90909 10.8747 6.68182 15.1102C4.71596 16.5905 2.3741 17.3327 0 17.2279C8.59091 22.5223 19.0909 17.2279 19.0909 5.05095C19.09 4.756 19.0645 4.46179 19.0145 4.17209C19.9888 3.10633 20.6762 1.76074 21 0.286038Z" fill="white"/>
</svg>
