<svg width="25" height="25" viewBox="0 0 25 25" fill="none" xmlns="http://www.w3.org/2000/svg">
<path fill-rule="evenodd" clip-rule="evenodd" d="M21.3575 3.63312C19.0074 1.2915 15.882 0.00137329 12.5523 0C5.69114 0 0.107172 5.5571 0.104412 12.3872C0.103492 14.5706 0.676608 16.702 1.76596 18.5806L0 25L6.59881 23.2773C8.41705 24.2644 10.464 24.7845 12.5472 24.7852H12.5524C19.4128 24.7852 24.9974 19.2276 25 12.3972C25.0014 9.08691 23.7078 5.97458 21.3575 3.63312ZM12.5523 22.693H12.548C10.6916 22.6923 8.87088 22.1957 7.28216 21.2578L6.90453 21.0345L2.9887 22.0569L4.03389 18.2573L3.78781 17.8677C2.75212 16.2283 2.20522 14.3335 2.20614 12.388C2.20829 6.71097 6.84964 2.09229 12.5564 2.09229C15.3199 2.0932 17.9176 3.16559 19.8709 5.11185C21.8242 7.05811 22.8993 9.64508 22.8984 12.3964C22.896 18.0739 18.2549 22.693 12.5523 22.693ZM18.2273 14.9814C17.9164 14.8264 16.3872 14.0778 16.102 13.9743C15.8171 13.871 15.6095 13.8196 15.4024 14.1293C15.1949 14.4391 14.599 15.1364 14.4174 15.3429C14.2359 15.5495 14.0547 15.5754 13.7436 15.4204C13.4325 15.2655 12.4304 14.9385 11.2423 13.884C10.3178 13.0632 9.6936 12.0496 9.51207 11.7398C9.33084 11.4297 9.51054 11.2784 9.64853 11.1081C9.98522 10.692 10.3224 10.2557 10.426 10.0493C10.5298 9.84268 10.4778 9.66187 10.4 9.50699C10.3224 9.35211 9.70035 7.82852 9.44123 7.20856C9.18856 6.60522 8.93236 6.68671 8.74132 6.67725C8.5601 6.66824 8.35265 6.66641 8.14521 6.66641C7.93792 6.66641 7.60092 6.74377 7.31574 7.05383C7.03071 7.36374 6.22731 8.11249 6.22731 9.63608C6.22731 11.1597 7.3418 12.6315 7.49727 12.8381C7.65274 13.0447 9.69054 16.1713 12.8105 17.5119C13.5526 17.8311 14.1318 18.0214 14.5836 18.1641C15.3288 18.3997 16.0066 18.3664 16.5426 18.2867C17.1403 18.1978 18.3826 17.5378 18.6421 16.8149C18.9012 16.0918 18.9012 15.4721 18.8233 15.3429C18.7457 15.2138 18.5383 15.1364 18.2273 14.9814Z" fill="white"/>
</svg>
