<svg width="21" height="18" viewBox="0 0 21 18" fill="none" xmlns="http://www.w3.org/2000/svg">
<path fill-rule="evenodd" clip-rule="evenodd" d="M19.5921 2.20047C19.9087 2.57443 20.1336 3.03749 20.244 3.54288C20.5389 5.41572 20.6821 7.31578 20.6716 9.21881C20.6775 11.0934 20.5344 12.9647 20.244 14.8095C20.1336 15.3149 19.9087 15.778 19.5921 16.152C19.2754 16.5259 18.8782 16.7975 18.4406 16.9393C16.8417 17.4292 10.4462 17.4292 10.4462 17.4292C10.4462 17.4292 4.05064 17.4292 2.45175 16.9393C2.02305 16.805 1.63184 16.5462 1.31593 16.188C1.00002 15.8299 0.770094 15.3844 0.648356 14.8947C0.353461 13.0219 0.210316 11.1218 0.220746 9.21881C0.212599 7.33 0.355736 5.44432 0.648356 3.58548C0.75878 3.08009 0.983672 2.61703 1.30032 2.24307C1.61696 1.86911 2.01415 1.5975 2.45175 1.45568C4.05064 0.96582 10.4462 0.96582 10.4462 0.96582C10.4462 0.96582 16.8417 0.96582 18.4406 1.41308C18.8782 1.55491 19.2754 1.82652 19.5921 2.20047ZM13.6997 9.21899L8.35457 12.7012V5.73682L13.6997 9.21899Z" fill="#A5D1B0"/>
</svg>
