<svg width="379" height="193" viewBox="0 0 379 193" fill="none" xmlns="http://www.w3.org/2000/svg">
<path d="M188.29 106.149C188.932 108.639 188.141 110.565 185.435 111.81C184.251 112.352 183.415 113.641 182.408 114.582C181.335 115.589 179.719 116.413 179.332 117.631C179.017 118.621 180.129 120.098 180.682 121.327C181.169 122.406 180.577 123.031 179.88 123.678C178.015 125.41 177.124 127.131 178.668 129.776C180.129 132.271 178.07 134.357 176.831 136.388C176.748 136.526 175.736 136.344 175.442 136.039C175.049 135.624 174.861 134.966 174.723 134.374C174.479 133.334 174.103 133.395 173.196 133.793C170.988 134.761 168.697 135.558 166.412 136.344C164.57 136.974 164.05 136.648 163.557 134.723C163.446 134.285 163.651 133.677 163.413 133.378C162.799 132.603 161.875 131.259 161.338 131.375C158.267 132.028 156.098 130.069 153.647 129.034C152.64 128.608 152.043 128.498 151.274 129.272C149.78 130.772 148.109 131.508 146.006 130.412C145.68 130.246 145.115 130.451 144.689 130.584C142.349 131.314 142.243 131.353 141.635 129.068C141.353 128.011 141.087 127.441 139.892 127.579C138.835 127.701 137.562 127.325 136.727 127.784C134.16 129.2 132.472 126.55 130.242 126.616C130.026 126.622 129.645 125.986 129.595 125.609C129.202 122.92 128.864 120.22 128.527 117.526C128.488 117.227 128.654 116.867 128.543 116.618C127.99 115.401 130.569 113.99 128.505 113.099C127.564 112.69 126.186 113.331 125.002 113.409C124.692 113.431 124.122 113.199 124.067 112.983C123.298 109.823 121.494 106.885 122.119 103.405C122.258 102.625 121.887 101.59 121.422 100.887C119.607 98.1541 119.912 95.382 121.251 92.6929C122.186 90.8171 123.326 88.9857 124.676 87.3921C125.71 86.1748 126.657 86.5013 127.542 87.9067C128.35 89.1849 129.13 90.4796 129.993 91.7246C131.874 94.4413 133.872 96.6712 137.684 94.6129C138.641 94.0927 140.102 94.3639 141.308 94.4745C143.627 94.6848 145.37 93.8216 147.002 92.2115C149.885 89.3619 151.323 88.9082 154.599 91.1325C157.664 93.213 160.381 91.5586 163.231 91.3538C163.928 91.304 164.813 90.3191 165.162 89.5611C166.202 87.2925 168.714 85.7598 168.277 82.6779C168.161 81.8369 169.533 80.7026 170.357 79.8339C171.774 78.3455 172.847 76.7796 172.698 74.594C172.659 74.0185 172.858 73.3988 173.046 72.8345C174.551 68.2143 175.271 67.163 180.616 68.3194C181.28 68.4633 182.054 68.502 182.685 68.2973C185.169 67.4729 187.471 67.9985 189.734 69.0387C191.676 69.9351 191.925 71.3239 190.592 73.7253C190.382 74.1015 190.443 74.6438 190.194 74.9758C188.799 76.8681 188.749 78.2293 190.741 80.0773C192.147 81.3776 192.523 83.8011 193.298 85.7432C193.32 85.7986 192.667 86.2246 192.296 86.3021C191.571 86.4515 191.145 86.7503 191.671 87.4475C192.567 88.6315 193.436 89.882 194.532 90.8614C195.865 92.0565 197.486 92.9197 198.858 94.0817C199.672 94.7678 199.661 95.8135 198.632 96.3281C197.713 96.7874 196.634 97.0585 195.605 97.1304C194.482 97.2024 193.342 96.9478 192.208 96.8372C192.318 98.5801 190.498 97.1636 190.144 98.0821C189.502 99.7697 188.81 101.452 188.329 103.184C188.091 104.014 188.29 104.982 188.29 106.149Z" fill="#CAA992"/>
<path d="M102.936 124.536C102.007 125.648 104.723 127.43 102.56 127.944C101.625 128.166 100.341 126.71 99.157 126.13C97.6188 125.377 97.1264 125.582 98.0172 127.352C98.2496 127.817 97.7903 128.913 97.3145 129.394C95.7818 130.943 97.4362 132.847 96.5343 134.523C95.7597 135.962 95.7431 137.528 96.1691 139.326C96.9216 142.48 95.4277 145.562 94.7858 148.66C94.5922 149.59 94.061 149.446 93.4911 149.059C92.1797 148.168 90.968 147.742 89.8005 149.347C89.6732 149.524 88.7381 149.164 88.2014 148.992C87.4102 148.743 86.6411 148.434 85.8609 148.151C86.0324 148.854 86.2427 149.546 86.3589 150.259C86.4032 150.52 86.2261 150.818 86.1486 151.101C85.7834 150.968 85.3076 150.94 85.0807 150.686C83.9686 149.441 82.613 148.284 81.9269 146.823C80.8147 144.455 78.9666 143.044 76.8917 141.733C74.7172 140.361 72.4431 139.088 70.4844 137.445C69.1398 136.316 68.2158 134.667 67.1977 133.184C66.6997 132.459 66.6388 131.17 66.0136 130.833C62.489 128.968 61.0559 125.128 58.1123 122.732C56.9559 121.792 55.7164 120.751 56.6903 118.87C56.8895 118.488 56.48 117.741 56.2697 117.199C54.2723 112.081 51.4393 107.428 48.3297 102.929C48.1582 102.68 47.959 102.392 47.7045 102.265C44.2352 100.611 43.4993 97.3849 42.8906 94.0484C42.7025 93.0137 42.3595 91.9956 41.9943 91.0052C41.12 88.637 39.7312 86.7779 37.2026 85.8705C35.4873 85.2563 34.4803 84.2437 33.7776 82.1577C32.8037 79.2639 30.4854 76.8127 28.7203 74.19C28.5598 73.9576 28.2389 73.7197 27.9733 73.6865C23.3421 73.1387 21.4442 69.0055 18.4895 66.3219C17.4604 65.3868 17.0841 63.6992 16.5087 62.3104C16.066 61.2425 14.9926 59.8814 16.2376 59.0459C17.0731 58.487 18.5615 58.8411 19.7511 58.902C20.1661 58.9241 20.5645 59.2949 20.9684 59.5051C24.1555 61.1706 27.5528 61.8622 31.1161 61.4694C34.4637 61.1042 36.6327 62.493 37.9164 65.5528C38.6025 67.2017 40.5944 68.0759 40.6497 70.1785C40.6608 70.599 41.4244 71.0527 41.9057 71.4069C44.8328 73.5703 47.7819 75.7006 50.7145 77.8696C51.2014 78.2292 51.8875 78.6276 52.0092 79.12C52.3966 80.7247 53.2819 81.5546 54.8588 82.0747C55.556 82.3071 55.9488 83.458 56.4855 84.1884C57.0499 84.9575 57.5977 85.6768 58.6711 84.8413C59.8386 83.9339 60.9342 84.1718 61.9357 85.1678C62.1515 85.3836 62.3617 85.6381 62.6218 85.7709C65.167 87.1044 65.9195 87.7351 67.0317 89.6717C67.4577 90.4132 67.8506 90.8558 68.7967 90.3523C70.4954 89.4559 71.4471 90.2804 71.6629 91.9569C71.9008 93.7884 72.3601 94.8563 74.5678 94.0816C75.763 93.6611 76.7478 95.891 78.4023 94.5796C78.8726 94.2089 80.2835 96.4664 79.6638 96.8371C77.9762 97.8386 78.6291 98.4805 79.6251 99.3602C80.3057 99.9633 80.9309 100.627 81.5174 101.319C81.6779 101.513 81.7387 102.105 81.6447 102.16C80.0954 103.007 81.0582 104.816 80.1839 105.889C79.7025 106.476 78.9334 106.918 78.6734 107.577C78.4631 108.119 78.5682 109.132 78.9556 109.497C80.2116 110.687 81.8217 110.985 83.5702 111.068C85.9052 111.179 86.5581 111.572 86.1929 113.768C85.6119 117.238 89.2859 117.952 89.9112 120.524C89.9886 120.84 90.9625 121.133 91.5102 121.111C93.0706 121.045 94.1329 121.543 94.725 123.081C94.8688 123.451 95.6213 123.579 96.0917 123.822C96.2134 123.258 96.5398 122.649 96.4292 122.135C95.9755 120.06 95.2949 119.595 92.9544 119.451C92.2019 119.407 91.4438 119.362 90.7024 119.241C90.5696 119.219 90.3483 118.693 90.4147 118.621C91.4936 117.437 92.5062 116.153 93.7622 115.196C94.393 114.715 95.4941 114.831 96.3905 114.72C98.1002 114.515 99.1515 115.439 99.1349 117.011C99.1072 119.827 100.142 121.681 102.92 122.494C103.29 122.605 103.772 123.131 103.772 123.463C103.744 123.833 103.224 124.187 102.936 124.536Z" fill="#CAA992"/>
<path d="M371.697 178.456C368.925 175.701 366.507 173.388 364.199 170.964C363.264 169.979 362.307 169.598 360.962 169.758C359.684 169.908 358.434 170.903 357.045 169.869C356.791 169.681 355.8 170.04 355.496 170.422C352.635 174.002 348.696 171.966 345.248 172.431C345.16 172.442 344.778 171.717 344.883 171.534C346.145 169.299 347.362 167.019 348.839 164.928C349.376 164.164 350.516 163.699 351.473 163.378C353.493 162.703 353.133 162.809 352.956 160.534C352.607 156.075 349.902 152.788 347.855 149.208C346.305 146.502 343.721 144.854 340.623 144.012C338.891 143.542 337.198 142.812 335.604 141.976C333.153 140.693 330.658 139.592 327.869 139.575C325.418 139.558 323.437 138.728 321.793 136.936C321.423 136.532 320.72 135.912 320.421 136.034C317.278 137.284 315.635 135.099 313.92 133.245C312.819 132.055 312.304 132.31 311.839 133.671C311.696 134.097 311.474 134.518 311.22 134.888C310.401 136.061 309.344 136.886 307.828 136.687C306.738 136.543 305.764 134.562 305.902 132.974C306.185 129.715 305.316 128.464 301.896 127.623C300.873 127.369 299.915 126.954 300.308 125.963C300.618 125.189 302.101 124.066 302.466 124.254C304.967 125.532 306.871 124.602 308.686 123.02C309.687 122.151 310.622 122.782 311.607 122.948C312.205 123.047 312.835 123.059 313.433 122.987C313.831 122.937 314.197 122.671 314.578 122.505C314.163 122.085 313.782 121.349 313.328 121.299C311.972 121.15 310.583 121.233 309.217 121.31C308.785 121.338 308.376 121.764 307.944 121.797C303.097 122.157 301.481 123.003 299.285 117.614C298.77 116.358 297.962 115.495 296.546 115.683C293.276 116.126 290.902 115.035 289.502 111.965C289.336 111.599 288.811 111.406 288.495 111.085C288.257 110.841 287.875 110.393 287.947 110.271C288.163 109.906 288.539 109.475 288.921 109.392C289.652 109.231 290.553 109.027 291.168 109.314C294.703 110.952 297.846 109.375 300.397 107.527C303.816 105.054 306.66 105.159 309.975 107.367C311.319 108.263 313.001 108.739 314.595 109.154C318.092 110.061 319.093 111.55 318.474 114.964C318.103 117.027 317.826 119.124 317.738 121.21C317.66 123.036 318.346 123.396 319.879 122.323C320.798 121.675 321.556 121.105 321.323 122.765C321.019 124.929 322.203 126.329 323.16 127.977C324.66 130.573 325.822 131.198 327.991 129.35C330.154 127.507 332.146 125.299 333.629 122.898C334.492 121.504 335.366 121.144 336.727 120.795C338.559 120.325 340.307 119.971 341.309 117.675C342.421 115.118 344.955 114.704 347.877 115.522C350.671 116.308 353.299 117.348 355.745 118.97C358.666 120.901 361.853 122.245 365.439 122.538C366.767 122.649 368.062 123.208 369.351 123.617C370.491 123.983 370.994 124.741 370.972 126.013C370.911 129.527 370.872 133.051 371 136.565C371.116 139.752 371.498 142.928 371.68 146.115C371.774 147.792 371.962 149.523 371.658 151.15C370.579 156.921 370.917 162.637 371.636 168.414C372.012 171.529 371.697 174.732 371.697 178.456Z" fill="#CAA992"/>
<path d="M236.329 101.457C234.221 100.998 232.472 100.6 230.713 100.24C230.121 100.118 229.501 100.069 228.892 100.063C223.082 100.008 217.273 99.9745 211.468 99.9191C209.847 99.9025 208.984 100.727 208.503 102.221C207.407 105.657 207.252 108.811 210.766 111.035C211.966 111.793 211.817 114.394 213.892 113.73C215.076 113.348 215.928 112.031 217.013 111.245C217.715 110.736 218.761 109.906 219.32 110.111C222.85 111.423 225.528 108.794 228.643 108.307C229.368 108.191 230.015 107.627 230.746 107.477C233.219 106.974 234.658 108.374 233.872 110.814C233.479 112.042 233.407 112.479 234.486 113.326C235.1 113.807 235.084 115.251 235.117 116.275C235.145 117.133 234.602 117.653 233.618 117.299C232.533 116.911 231.465 116.292 230.364 116.225C229.556 116.175 228.842 116.419 228.676 115.395C228.505 114.333 228.333 113.226 229.855 112.894C230.436 112.767 231.011 112.535 231.537 112.252C231.758 112.131 231.847 111.76 231.996 111.505C231.725 111.384 231.415 111.107 231.189 111.162C230.204 111.4 228.732 111.45 228.367 112.092C226.685 115.063 223.968 116.568 221.14 118.112C219.325 119.102 219.442 119.551 220.747 121.039C222.347 122.865 223.957 124.696 225.329 126.688C225.86 127.463 225.744 128.686 225.938 129.698C226.187 131.004 226.281 132.365 226.74 133.594C227.548 135.746 227.647 135.707 230.198 135.121C231.864 134.739 232.837 135.508 232.118 136.98C231.465 138.314 231.797 139.193 232.146 140.377C232.373 141.141 232.207 142.629 231.747 142.856C230.464 143.493 230.58 143.935 231.476 144.715C232.843 145.91 232.24 146.823 231.006 147.581C230.502 147.891 229.916 148.063 229.407 148.373C228.416 148.976 227.481 149.667 226.474 150.232C226.297 150.331 224.051 145.8 224.078 145.357C224.184 143.459 224.814 141.844 226.33 140.571C226.967 140.04 226.624 139.531 225.816 139.481C224.289 139.387 223.049 139.63 223.143 141.628C223.215 143.199 222.059 143.343 220.952 143.172C218.379 142.768 216.863 140.754 217.87 138.186C218.634 136.244 217.881 135.824 216.559 135.226C215.873 134.916 215.165 134.628 214.545 134.213C213.283 133.367 212.691 132.216 213.239 130.672C213.494 129.964 213.947 129.261 213.953 128.548C213.964 127.375 213.687 126.196 213.538 125.023C212.575 125.355 211.546 125.565 210.672 126.052C209.499 126.711 208.851 127.806 209.631 129.123C210.655 130.86 210.777 132.897 209.986 134.402C208.829 136.604 210.456 138.574 209.803 140.61C209.128 142.712 209.205 144.754 210.19 146.818C210.55 147.576 210.461 148.6 209.05 148.727C207.723 148.849 206.417 149.214 205.105 149.496C202.306 150.099 200.684 148.566 201.116 145.662C201.559 142.674 202.117 139.702 202.488 136.709C202.61 135.713 202.245 134.662 202.206 133.638C202.134 131.563 201.476 130.86 199.417 132.028C198.333 132.642 197.093 131.989 196.878 130.838C196.44 128.492 195.699 125.881 197.879 123.999C200.435 121.792 200.601 118.776 201.155 115.843C201.431 114.377 201.365 112.463 202.261 111.561C204.973 108.839 204.984 105.386 205.808 102.06C206.372 99.7808 207.739 97.6837 208.862 95.5701C209.012 95.2879 210.052 95.0998 210.273 95.3045C211.336 96.2949 211.695 96.2728 212.415 94.8176C214.047 91.5032 214.429 91.4977 217.66 92.6873C224.172 95.0832 230.928 95.7084 237.812 95.5148C239.881 95.4539 240.938 93.8659 242.338 92.8589C243.511 92.0178 244.274 90.6345 245.353 89.6386C246.244 88.8141 247.235 88.8031 248.136 89.8488C248.906 90.7397 248.679 91.3483 247.987 92.1949C245.979 94.6516 244.363 97.5233 242.033 99.5982C240.628 100.832 238.171 100.904 236.329 101.457Z" fill="#CAA992"/>
<path d="M155.8 164.336C157.023 164.336 158.306 164.103 159.452 164.402C160.536 164.684 162.152 165.343 162.357 166.14C162.993 168.607 164.68 168.253 166.285 168.026C168.382 167.733 170.236 168.098 171.774 169.537C172.062 169.808 172.172 170.71 171.951 171.02C170.424 173.111 168.139 173.56 165.687 172.37C165.007 172.038 164.343 171.667 163.635 171.418C163.353 171.319 162.971 171.501 162.633 171.557C162.711 171.844 162.783 172.126 162.86 172.414C163.004 172.951 163.142 173.488 163.286 174.024C162.749 173.963 162.185 173.997 161.682 173.836C156.956 172.309 152.303 170.909 147.212 170.538C143.704 170.284 140.124 171.385 136.628 169.941C133.435 168.624 130.026 167.827 126.751 166.693C124.134 165.791 118.429 165.249 114.556 165.841C112.752 166.112 110.666 165.537 108.901 164.845C106.217 163.794 103.667 162.787 100.657 163.218C98.9248 163.467 98.6702 162.759 98.9248 160.313C98.969 159.871 98.6426 159.03 98.3659 158.974C96.4681 158.587 94.6864 157.359 92.617 158.083C92.1965 158.233 91.6653 158.576 91.3665 158.438C90.8685 158.205 90.4038 157.713 90.1437 157.215C90.033 156.999 90.4203 156.219 90.6693 156.174C93.0652 155.726 93.9394 153.635 95.295 152.052C96.8609 150.226 98.4102 148.849 101.121 150.448C102.25 151.112 103.871 151.897 105.443 150.719C105.797 150.453 106.904 150.542 107.125 150.852C108.409 152.678 110.356 152.202 112.088 152.606C113.964 153.048 115.967 153.425 117.167 155.311C118.069 156.733 119.491 156.971 121.129 157.043C123.381 157.137 125.606 157.685 127.852 157.917C129.739 158.117 131.283 157.851 132.422 155.804C133.59 153.701 133.911 153.934 136.528 155.001C137.751 155.499 139.112 155.787 140.429 155.887C141.834 155.992 143.068 156.136 144.219 157.143C144.822 157.668 145.873 157.807 146.737 157.879C150.969 158.233 155.213 158.493 159.446 158.825C159.789 158.852 160.11 159.162 160.442 159.345C160.243 159.572 160.088 159.871 159.839 160.009C157.028 161.536 154.223 163.08 150.814 162.139C150.549 162.067 150.184 162.366 149.863 162.493C150.073 162.864 150.222 163.489 150.505 163.561C152.236 163.987 153.996 164.286 155.744 164.629C155.761 164.524 155.783 164.43 155.8 164.336Z" fill="#CAA992"/>
<path d="M269.898 85.2838C270.081 86.6615 269.24 87.9065 269.915 89.4724C270.916 91.8018 268.958 93.3788 267.596 95.011C267.403 95.2434 267.602 95.8023 267.619 96.2117C267.879 96.09 268.238 96.0402 268.388 95.8355C269.256 94.6459 269.981 93.3345 270.95 92.2334C271.696 91.3813 272.648 90.6011 273.666 90.1364C274.137 89.9206 275.193 90.3577 275.597 90.8335C275.957 91.254 275.907 92.1504 275.819 92.8033C275.741 93.3788 275.487 94.0483 275.077 94.4356C274.209 95.2656 273.196 95.9406 272.239 96.6765C273.152 97.2298 274.231 97.6227 274.917 98.3807C275.476 98.9949 275.586 100.035 275.857 100.898C275.924 101.114 275.841 101.385 275.824 101.629C275.542 101.607 275.182 101.684 274.983 101.546C273.589 100.561 272.15 99.6478 270.352 100.107C269.915 100.218 269.339 100.771 269.267 101.192C268.902 103.344 269.046 105.447 270.479 107.256C271.049 107.97 271.73 108.606 272.25 109.353C272.46 109.657 272.383 110.161 272.432 110.576C271.901 110.559 271.353 110.603 270.839 110.504C270.579 110.454 270.374 110.128 270.136 109.934C269.533 109.441 269.533 109.441 267.679 110C266.114 110.471 263.076 109.204 262.412 107.671C262.074 106.896 261.665 105.795 261.969 105.175C262.478 104.146 263.463 104.832 264.326 105.137C265.748 105.635 266.656 105.02 266.728 103.615C266.755 103.045 266.567 102.459 266.429 101.889C265.826 99.4431 265.195 97.003 264.586 94.5573C263.934 91.9291 265.439 89.8376 266.462 87.6962C267.093 86.3738 268.094 85.0182 270.025 85.4553L269.898 85.2838Z" fill="#CAA992"/>
<path d="M240.966 172.818C239.295 172.514 237.983 172.21 236.65 172.066C235.975 171.994 235.278 172.281 234.58 172.309C229.318 172.547 224.455 174.982 219.243 175.242C215.004 175.452 210.727 174.816 206.472 174.915C205.017 174.948 203.833 174.91 202.754 173.986C202.134 173.454 200.845 173.316 201.343 172.093C201.415 171.922 202.687 172.431 203.291 172.243C204.264 171.938 205.26 171.468 206.029 170.815C208.248 168.934 210.373 168.414 213.001 170.212C215.259 171.756 217.92 171.617 220.648 171.778C224.233 171.988 227.293 171.673 230.353 169.819C231.443 169.155 232.965 169.067 234.304 168.984C237.192 168.812 240.097 168.735 242.991 168.796C244.142 168.818 245.37 169.15 246.405 169.659C247.174 170.035 247.218 171.191 246.377 171.479C244.562 172.115 242.626 172.431 240.966 172.818Z" fill="#CAA992"/>
<path d="M196.645 175.214C195.5 175.214 194.808 175.407 194.62 175.186C192.8 173.034 191.106 174.649 189.53 175.407C186.221 177.001 183.106 177.753 180.062 174.837C179.758 174.544 178.762 174.97 178.087 175.07C176.505 175.302 174.95 176.47 173.334 175.286C173.03 175.059 172.902 174.588 172.698 174.229C175.044 173.714 173.943 171.125 175.254 169.985C176.726 168.707 178.662 168.507 179.631 170.101C180.715 171.888 181.578 171.589 183.255 171.158C185.275 170.638 186.237 168.032 188.783 168.729C190.802 169.282 192.916 169.481 194.958 169.963C196.114 170.234 197.309 170.616 198.3 171.235C198.964 171.65 199.793 172.696 199.661 173.255C199.495 173.974 198.504 174.588 197.741 175.042C197.259 175.319 196.557 175.225 196.645 175.214Z" fill="#CAA992"/>
<path d="M274.718 125.737C275.857 126.423 277.18 124.315 278.281 125.797C279.598 127.568 280.638 125.167 281.955 125.703C285.452 127.131 289.641 127.391 291.323 131.652C291.489 132.072 291.843 132.498 291.81 132.896C291.76 133.461 291.522 134.07 291.173 134.512C291.024 134.7 290.343 134.639 290 134.479C288.495 133.782 287.04 132.979 285.535 132.277C283.737 131.436 282.171 129.787 279.792 131.198C279.188 131.557 277.733 130.916 276.909 130.368C275.603 129.494 275.321 130.158 275.376 131.203C275.443 132.548 275.061 133.057 273.617 133.085C272.322 133.107 271.016 133.544 269.76 133.948C269.096 134.164 268.438 135.01 267.917 133.998C267.646 133.461 267.646 132.603 267.873 132.033C268.642 130.119 268.1 129.604 266.186 130.163C266.02 130.213 265.533 129.826 265.555 129.72C265.638 129.333 265.782 128.774 266.075 128.642C266.872 128.276 268.144 128.354 268.526 127.784C270.092 125.427 272.383 125.709 274.718 125.737Z" fill="#CAA992"/>
<path d="M233.335 188.261C233.092 187.254 230.663 186.053 233.606 185.317C233.795 185.273 234.066 184.797 234.005 184.642C233.075 182.39 234.874 181.4 236.069 180.172C238.365 177.814 241.419 176.785 244.407 175.717C244.966 175.518 245.962 175.784 246.388 176.21C246.725 176.547 246.676 177.505 246.504 178.097C245.37 181.937 242.725 184.487 238.642 186.463C236.871 187.32 235.344 188.61 233.203 188.117L233.335 188.261Z" fill="#CAA992"/>
<path d="M203.185 178.915C204.823 177.953 206.428 178.854 207.955 180.658C208.702 181.538 209.936 181.986 210.899 182.706C211.95 183.497 212.581 184.515 211.845 185.837C211.186 187.021 210.047 187.564 208.774 187.281C207.778 187.066 206.627 186.673 205.958 185.97C203.955 183.856 201.465 183.082 198.726 182.623C198.2 182.534 197.453 181.687 197.442 181.184C197.431 180.586 198.001 179.59 198.515 179.446C199.794 179.081 201.177 179.109 203.185 178.915Z" fill="#CAA992"/>
<path d="M322.391 152.008C322.435 152.229 322.651 153.092 322.762 153.961C322.867 154.797 323.088 155.721 322.856 156.484C322.186 158.736 321.196 159.621 320.698 159.052C319.127 157.248 318.944 159.887 317.893 159.705C316.974 159.544 315.901 158.603 316.089 157.53C316.603 154.625 317.079 151.704 317.81 148.849C318.031 147.996 318.999 147.299 319.719 146.63C319.918 146.447 320.56 146.453 320.786 146.635C322.308 147.841 322.618 148.815 322.391 152.008Z" fill="#CAA992"/>
<path d="M258.694 127.607C259.153 127.607 259.618 127.552 260.066 127.618C262.429 127.967 264.05 130.064 263.541 132.067C263.109 133.76 260.215 135.265 258.351 134.667C257.493 134.391 256.68 133.937 255.911 133.461C254.422 132.554 253.039 131.264 253.542 129.472C253.991 127.878 255.806 127.74 257.322 127.618C257.775 127.579 258.235 127.612 258.694 127.607Z" fill="#CAA992"/>
<path d="M257.908 118.023C257.111 118.228 256.602 118.433 256.077 118.482C254.217 118.654 253.299 119.324 254.24 121.343C254.417 121.719 254.018 122.361 253.885 122.881C253.537 122.605 252.945 122.367 252.884 122.035C252.414 119.478 250.615 119.097 248.491 119.241C246.548 119.368 244.612 119.584 242.664 119.716C242.017 119.761 241.353 119.667 240.7 119.633C240.894 118.665 240.772 117.199 241.342 116.839C242.415 116.164 243.942 115.744 245.198 115.899C249.343 116.424 253.448 117.254 257.908 118.023Z" fill="#CAA992"/>
<path d="M290.653 171.313C292.662 169.465 293.104 167.196 292.562 164.634C292.49 164.286 292.363 163.644 292.462 163.6C294.753 162.593 296.651 160.617 299.39 160.7C299.678 160.711 300.01 160.8 300.236 160.966C300.463 161.132 300.674 161.425 300.729 161.691C300.768 161.879 300.535 162.322 300.436 162.316C298.018 162.233 297.741 163.998 297.038 165.752C295.948 168.486 293.818 170.411 290.653 171.313Z" fill="#CAA992"/>
<path d="M110.749 128.658C110.716 128.675 110.212 129.118 109.67 129.162C109.283 129.195 108.624 128.786 108.48 128.42C107.534 126.036 107.733 125.477 109.897 124.116C110.522 123.723 111.335 123.037 111.861 123.186C112.912 123.49 114.108 124.077 114.716 124.929C115.474 125.997 114.749 128.592 113.726 128.957C113.023 129.195 112.105 128.819 110.749 128.658Z" fill="#CAA992"/>
<path d="M290.736 102.818C291.013 102.879 292.241 102.968 293.298 103.449C294.167 103.842 295.406 104.65 295.461 105.353C295.583 106.963 294.034 106.343 293.099 106.487C292.656 106.553 292.202 106.586 291.765 106.669C290.664 106.885 290.078 108.883 288.788 107.881C288.008 107.278 288.119 105.911 286.913 105.159C285.773 104.445 286.536 102.935 288.008 102.818C288.606 102.78 289.214 102.818 290.736 102.818Z" fill="#CAA992"/>
<path d="M41.6346 109.729C42.5863 110.454 43.4827 110.786 43.6985 111.367C44.4842 113.47 45.0541 115.655 45.6351 117.824C45.6627 117.918 44.96 118.416 44.6778 118.355C42.6527 117.924 39.698 114.283 39.947 112.263C40.0577 111.433 40.9596 110.698 41.6346 109.729Z" fill="#CAA992"/>
<path d="M259.911 165.232C259.601 167.523 257.786 168.679 255.8 168.281C254.92 168.104 254.013 168.048 253.116 168.01C252.358 167.977 251.595 168.048 250.831 168.076C251.313 167.169 251.595 165.713 252.309 165.464C254.262 164.778 256.381 164.513 258.461 164.275C258.948 164.225 259.518 164.961 259.911 165.232Z" fill="#CAA992"/>
<path d="M31.4039 90.701C33.8773 91.0108 34.9839 93.0581 36.1016 94.6848C36.5996 95.4097 35.7475 97.1637 35.3269 98.381C35.1333 98.9343 34.5468 99.1777 34.0211 98.4197C32.7264 96.5716 31.3376 94.79 30.0705 92.9198C29.7938 92.5103 29.6112 91.6748 29.8381 91.3705C30.1313 90.9776 30.8728 90.9057 31.4039 90.701Z" fill="#CAA992"/>
<path d="M330.121 115.351C332.76 115.943 335.399 116.524 338.028 117.149C338.249 117.204 338.487 117.581 338.52 117.835C338.542 117.984 338.216 118.272 337.995 118.361C334.276 119.783 330.923 118.56 327.653 116.872C327.415 116.751 327.221 116.413 327.166 116.147C327.144 116.042 327.542 115.727 327.758 115.71C328.516 115.655 329.285 115.688 330.043 115.688C330.077 115.578 330.099 115.461 330.121 115.351Z" fill="#CAA992"/>
<path d="M327.305 108.324C330.082 108.119 331.88 109.176 333.413 110.725C333.812 111.129 335.272 110.974 334.453 112.081C333.939 112.778 333.629 113.862 332.035 113.381C329.949 112.756 328.92 110.908 327.161 109.962C326.79 109.762 326.707 109.015 326.497 108.523C326.923 108.423 327.343 108.313 327.305 108.324Z" fill="#CAA992"/>
<path d="M270.042 85.4442C270.081 83.1092 272.399 83.0595 273.644 81.9418C273.755 81.8422 274.474 82.2073 274.712 82.5061C275.691 83.7511 275.343 86.1359 273.904 86.8994C272.847 87.4583 271.547 87.6796 270.856 86.0861C270.706 85.743 270.23 85.5494 269.904 85.2838L270.042 85.4442Z" fill="#CAA992"/>
<path d="M269.212 117.553C268.072 117.365 267.165 117.293 266.307 117.055C264.703 116.607 264.194 115.71 264.432 114.061C264.609 112.822 265.522 112.556 266.39 112.949C267.597 113.492 268.698 114.31 269.771 115.113C270.203 115.434 270.795 116.291 270.684 116.441C270.313 116.944 269.66 117.243 269.212 117.553Z" fill="#CAA992"/>
<path d="M25.6052 83.9837C25.2511 84.2825 24.8361 84.8911 24.3658 84.9464C23.8512 85.0073 23.1817 84.6587 22.7446 84.2935C21.4221 83.1869 19.6073 82.451 19.4689 80.3761C19.4579 80.2378 19.9171 79.95 20.1772 79.9334C21.9312 79.8006 25.0353 81.7926 25.5665 83.364C25.6052 83.4968 25.5831 83.6572 25.6052 83.9837Z" fill="#CAA992"/>
<path d="M306.417 151.089C305.864 150.918 304.967 151.803 304.807 150.486C304.657 149.258 304.696 148.057 306.002 147.41C306.085 147.371 306.494 147.847 306.655 148.14C306.86 148.522 306.965 148.959 307.109 149.374C307.275 149.014 307.418 148.638 307.618 148.295C308.049 147.543 308.47 146.768 309.006 146.087C309.1 145.971 309.997 146.187 310.058 146.386C310.351 147.388 308.558 151.062 307.656 151.322C307.297 151.427 306.832 151.178 306.417 151.089Z" fill="#CAA992"/>
<path d="M286.88 116.297C287.605 116.828 288.446 117.216 288.861 117.869C289.01 118.101 288.241 119.125 287.699 119.545C286.398 120.563 283.759 120.038 282.99 118.649C282.868 118.427 283.117 117.73 283.366 117.614C284.445 117.127 285.579 116.773 286.88 116.297Z" fill="#CAA992"/>
<path d="M233.203 188.117C233.335 189.55 233.252 191.022 231.764 191.642C230.591 192.129 229.064 193.717 228.084 192.372C227.033 190.922 229.019 190.104 230.015 189.434C230.956 188.798 232.218 188.632 233.335 188.261L233.203 188.117Z" fill="#CAA992"/>
<path d="M54.9474 127.385C54.5379 128.104 54.2391 128.625 53.9403 129.145C53.4977 128.824 52.9886 128.558 52.629 128.165C52.3412 127.844 52.2029 127.374 52.0369 126.959C51.5113 125.592 50.128 124.497 50.72 122.798C50.7643 122.676 51.218 122.538 51.3287 122.621C53.055 123.866 54.3664 125.426 54.9474 127.385Z" fill="#CAA992"/>
<path d="M211.159 152.616C210.777 153.939 210.412 155.217 210.008 156.479C209.997 156.512 209.477 156.495 209.327 156.357C208.021 155.156 208.735 153.895 209.233 152.616C209.394 152.201 209.277 151.67 209.477 151.288C209.62 151.012 210.063 150.802 210.401 150.746C210.572 150.719 210.921 151.067 210.998 151.311C211.131 151.737 211.12 152.207 211.159 152.616Z" fill="#CAA992"/>
<path d="M168.897 157.895C170.888 157.862 172.178 158.847 173.284 160.136C173.434 160.313 173.445 160.723 173.351 160.96C173.295 161.093 172.864 161.204 172.665 161.132C171.265 160.623 169.87 160.092 168.498 159.505C168.316 159.428 168.138 158.946 168.216 158.753C168.36 158.404 168.692 158.139 168.897 157.895Z" fill="#CAA992"/>
<path d="M40.5279 106.443C40.3619 106.597 39.9746 106.963 39.5818 107.328C39.2553 106.941 38.9178 106.564 38.6135 106.16C38.536 106.055 38.5747 105.867 38.5581 105.712C38.4586 104.749 38.3645 103.781 38.2649 102.818C38.5581 102.868 38.8901 102.84 39.1336 102.979C40.3122 103.659 40.7548 104.716 40.5279 106.443Z" fill="#CAA992"/>
<path d="M268.781 170.693C267.873 170.14 266.401 170.953 265.643 169.636C266.722 169.36 267.79 169.033 268.88 168.823C269.295 168.74 269.832 168.801 270.175 169.017C270.474 169.21 270.656 169.692 270.734 170.079C270.767 170.245 270.429 170.616 270.214 170.665C269.788 170.76 269.323 170.693 268.781 170.693Z" fill="#CAA992"/>
<path d="M47.9756 118.483C49.1486 118.837 50.0173 120.547 49.5083 121.62C49.4197 121.803 49.0103 121.974 48.7834 121.93C47.7653 121.742 46.7915 119.766 47.2563 118.831C47.3559 118.643 47.7321 118.593 47.9756 118.483Z" fill="#CAA992"/>
<path d="M222.944 146.785C222.341 147 221.721 147.449 221.229 147.332C220.764 147.222 220.15 146.541 220.117 146.076C220.078 145.518 220.493 144.842 220.902 144.389C221.024 144.25 221.932 144.577 222.225 144.914C222.579 145.318 222.651 145.966 222.944 146.785Z" fill="#CAA992"/>
<path d="M284.273 167.307C283.432 168.054 282.956 168.812 282.492 168.801C281.988 168.79 281.252 168.164 281.053 167.639C280.76 166.87 281.219 166.106 282.16 166.228C282.757 166.3 283.299 166.787 284.273 167.307Z" fill="#CAA992"/>
<path d="M220.77 186.789C221.063 187.912 221.395 188.471 221.301 188.958C221.019 190.48 219.812 190.115 218.789 189.982C218.507 189.943 218.246 189.738 217.975 189.611C218.789 188.798 219.591 187.984 220.77 186.789Z" fill="#CAA992"/>
<path d="M43.5159 102.199C42.8243 102.719 42.1603 103.438 41.95 103.327C41.369 103.012 40.6829 102.381 40.6165 101.811C40.5723 101.413 41.4852 100.904 41.9666 100.45C42.4314 100.97 42.8962 101.501 43.5159 102.199Z" fill="#CAA992"/>
<path d="M69.1397 146.53C68.0995 146.679 67.4687 146.973 67.0482 146.785C66.4506 146.519 66.0079 145.899 65.4989 145.429C66.0356 145.291 66.6443 144.925 67.0924 145.064C67.7011 145.252 68.1935 145.822 69.1397 146.53Z" fill="#CAA992"/>
<path d="M275.553 161.154C274.806 161.63 274.275 162.051 273.666 162.289C273.534 162.344 272.87 161.636 272.925 161.519C273.229 160.922 273.688 160.402 274.092 159.854C274.513 160.23 274.933 160.601 275.553 161.154Z" fill="#CAA992"/>
<path d="M324.488 111.793C323.73 112.269 323.232 112.817 322.878 112.739C322.402 112.629 321.788 112.081 321.705 111.633C321.639 111.273 322.28 110.786 322.607 110.355C323.121 110.753 323.642 111.146 324.488 111.793Z" fill="#CAA992"/>
<circle cx="15.0034" cy="56.7785" r="15.0034" fill="#1F9920"/>
<circle cx="363.997" cy="162.455" r="15.0034" fill="#1F9920"/>
<path d="M17.9388 50.5816C92.9561 -3.23514 267.518 -56.3343 365.627 161.803" stroke="#3DCA3F" stroke-width="5"/>
</svg>
